<?xml version="1.0" encoding="utf-8"?>
<!-- Generator: Adobe Illustrator 23.0.3, SVG Export Plug-In . SVG Version: 6.00 Build 0)  -->
<svg version="1.1" id="Layer_1" xmlns="http://www.w3.org/2000/svg" xmlns:xlink="http://www.w3.org/1999/xlink" x="0px" y="0px"
	 viewBox="0 0 74.2 90" style="enable-background:new 0 0 74.2 90;" xml:space="preserve">
<style type="text/css">
	.st0{fill:#EAEAEA;}
</style>
<path class="st0" d="M72,63.5l-0.5-0.8c-2-3.2-4.9-7.5-4.9-19.8v-5.8c0-12.4-8-23.6-19.6-27.7C46.9,4.2,42.6,0,37.3,0
	s-9.6,4.2-9.8,9.5C15.9,13.6,7.9,24.8,7.9,37.2v5.9c0,12.3-2.9,16.7-5,19.9C1.3,65.2,0,67.3,0,70.5c0,6.2,8,9.8,24.6,11.2
	c1.9,4.9,6.9,8.3,12.5,8.3s10.5-3.3,12.5-8.3c16.5-1.3,24.5-5,24.6-11.2C74.5,67.5,73.2,65.4,72,63.5z M37.3,6.3
	c1.8,0,3.3,1.4,3.5,3.2c-2.2-0.3-4.6-0.3-6.9,0C34,7.7,35.5,6.3,37.3,6.3z M37.3,83.6c-2.4,0-4.5-1.2-5.9-3h0.5
	c2.2,0.1,4.1,0.1,5.4,0.1c1.5,0,3.5,0,5.9-0.1C41.8,82.5,39.7,83.6,37.3,83.6z M37.2,74.3c-17.7,0-27.8-2.9-29.3-4.2
	c0.1-0.7,0.4-1.3,1.4-2.8l0.1-0.1c2.5-3.7,6.2-9.2,6.2-24.2v-5.8c0-11.8,9.6-21.5,21.5-21.5c11.8,0,21.5,9.6,21.5,21.5v5.9
	c0.1,14.4,3.7,20.1,6.2,23.9l0.2,0.4c0.9,1.4,1.3,2.1,1.4,2.7C64.4,71.9,53.2,74.3,37.2,74.3z"/>
<path class="st0" d="M-53.8,64.6L-53.8,64.6L-53.8,64.6z"/>
</svg>
