<?xml version="1.0" encoding="utf-8"?>
<!-- Generator: Adobe Illustrator 23.0.3, SVG Export Plug-In . SVG Version: 6.00 Build 0)  -->
<svg version="1.1" id="Capa_1" xmlns="http://www.w3.org/2000/svg" xmlns:xlink="http://www.w3.org/1999/xlink" x="0px" y="0px"
	 viewBox="0 0 100 100" style="enable-background:new 0 0 100 100;" xml:space="preserve">
<style type="text/css">
	.st0{fill:#2B3BE3;}
</style>
<g>
	<g>
		<g>
			<path class="st0" d="M69.2,5H16C10.3,5,5.7,9.6,5.7,15.3v53.1c0,5.7,4.6,10.3,10.3,10.3h16.3v-3H16c-4.1,0-7.4-3.3-7.4-7.4v-25
				h9.5c0.9-0.1,1.5-0.8,1.5-1.7c0-0.2-0.1-0.3-0.1-0.5c-1.3-3,0-6.5,3-7.8c3-1.3,6.5,0,7.8,3c0.7,1.5,0.7,3.2,0,4.8
				c-0.4,0.8,0,1.7,0.7,2c0.2,0.1,0.4,0.1,0.6,0.1h9.5v8.9c-0.5-0.1-1-0.1-1.5-0.1c-4.9,0-8.9,4-8.9,8.9c0,3.5,2.1,6.7,5.3,8.1
				l1.2-2.7c-3-1.3-4.4-4.8-3.1-7.8c0.9-2.2,3.1-3.6,5.4-3.6c0.8,0,1.6,0.2,2.4,0.5c0.7,0.3,1.6,0,1.9-0.8c0.1-0.2,0.1-0.4,0.1-0.6
				V43.4h7.5c-0.1,0.5-0.1,1-0.1,1.5c0,4.2,3,7.8,7.1,8.7l0.6-2.9c-2.7-0.6-4.7-3-4.7-5.8c0-0.8,0.2-1.6,0.5-2.4
				c0.3-0.7,0-1.6-0.8-1.9c-0.2-0.1-0.4-0.1-0.6-0.1h-9.5v-7.5c0.5,0.1,1,0.1,1.5,0.1c4.9,0,8.9-4,8.9-8.9s-4-8.9-8.9-8.9
				c-0.5,0-1,0-1.5,0.1V8h25.1c4.1,0,7.4,3.3,7.4,7.4v25.1h-9.5c-0.8,0-1.5,0.7-1.5,1.5c0,0.2,0,0.4,0.1,0.6
				c0.3,0.7,0.5,1.5,0.5,2.4h3c0-0.5,0-1-0.1-1.5h9c0.8,0,1.5-0.7,1.5-1.5V15.3C79.5,9.6,74.9,5,69.2,5z M45.6,18.3
				c3.3,0,5.9,2.6,5.9,5.9s-2.6,5.9-5.9,5.9c-0.8,0-1.6-0.2-2.4-0.5c-0.7-0.3-1.6,0-1.9,0.8c-0.1,0.2-0.1,0.4-0.1,0.6v9.4h-7.5
				c0.1-0.4,0.1-0.9,0.1-1.4c0,0,0-0.1,0-0.1c0,0,0,0,0,0c0-4.9-4-8.9-8.9-8.9S16,34,16,38.9c0,0,0,0,0,0c0,0,0,0.1,0,0.1
				c0,0.5,0,0.9,0.1,1.4H8.6v-25C8.6,11.3,11.9,8,16,8h25.1v9.5c0,0.8,0.7,1.5,1.5,1.5c0.2,0,0.4,0,0.6-0.1
				C43.9,18.5,44.8,18.3,45.6,18.3z"/>
		</g>
	</g>
	<g>
		<g>
			<path class="st0" d="M91.2,68.5L78.7,60L74,47.2c-0.3-0.8-1.1-1.2-1.9-0.9c0,0-0.1,0-0.1,0l-9.6,4.2c-0.7,0.3-1.1,1.1-0.8,1.9
				c0.2,0.4,0.3,0.7,0.5,1.1c0.2,0.3,0.3,0.6,0.5,1.1c1.1,3.1-0.4,6.5-3.5,7.6c-3.1,1.1-6.5-0.4-7.6-3.5c-0.3-0.8-0.4-1.6-0.4-2.4
				c0-0.8-0.6-1.5-1.4-1.6c-0.2,0-0.4,0-0.6,0.1l-10.3,3.9c-0.8,0.3-1.1,1.1-0.9,1.9l3.7,9.8c-0.5,0.1-1,0.2-1.4,0.4
				c-4.6,1.7-6.9,6.8-5.2,11.4c1.7,4.6,6.8,6.9,11.4,5.2c0.5-0.2,0.9-0.4,1.4-0.6l2.6,7.1c0.3,0.8,1.1,1.2,1.9,0.9c0,0,0,0,0,0
				L67,89.4c0.9,2,2.6,3.5,4.7,4.2l0.9-2.8c-1.2-0.4-2.2-1.3-2.8-2.4l4.5-1.7c1.5,4.1,5.4,6.9,9.7,6.9v-3c-4.1,0-7.4-3.3-7.4-7.4
				c0-0.4-0.2-0.8-0.4-1L71,77c-0.8-0.8-0.8-2-0.2-2.9c0.4-0.5,1-0.8,1.6-0.9c0.6-0.1,1.3,0.2,1.7,0.6l10.3,10.3l2.1-2.1l-3.1-3.1
				c0.8-2.2,0.7-4.7-0.1-6.9l-2.8-7.4l8.9,6.1c1.2,0.8,1.9,2.2,1.9,3.6v19.1h3V74.6C94.3,72.1,93.1,69.9,91.2,68.5z M80.6,73.2
				c0.4,1.1,0.6,2.3,0.4,3.4l-4.8-4.8c-2-2-5.2-2.1-7.3-0.1c-2,2-2.1,5.2-0.1,7.3c0,0,0.1,0.1,0.1,0.1l4.7,4.7l-20.9,7.9l-2.8-7.5
				c-0.2-0.5-0.6-0.8-1.1-0.9c-0.1,0-0.2,0-0.3,0c-0.4,0-0.8,0.2-1,0.4c-2.4,2.2-6.1,2.1-8.4-0.2c-2.2-2.4-2.1-6.1,0.2-8.4
				c0.6-0.5,1.2-0.9,1.9-1.2c0.5-0.2,1-0.3,1.5-0.3c0.3,0,0.6,0,0.9,0c0.8,0,1.5-0.6,1.6-1.4c0-0.2,0-0.4-0.1-0.6l-3.9-10.3l7-2.6
				c0.9,4.8,5.6,8,10.4,7c0.5-0.1,1-0.2,1.4-0.4c4.6-1.7,6.9-6.9,5.2-11.4c-0.1-0.4-0.3-0.7-0.4-0.9l6.8-3L80.6,73.2z"/>
		</g>
	</g>
</g>
</svg>
