<?xml version="1.0" encoding="utf-8"?>
<!-- Generator: Adobe Illustrator 23.0.3, SVG Export Plug-In . SVG Version: 6.00 Build 0)  -->
<svg version="1.1" id="Capa_1" xmlns="http://www.w3.org/2000/svg" xmlns:xlink="http://www.w3.org/1999/xlink" x="0px" y="0px"
	 viewBox="0 0 100 100" style="enable-background:new 0 0 100 100;" xml:space="preserve">
<style type="text/css">
	.st0{fill:#FABF3C;}
</style>
<g>
	<g>
		<g>
			<path class="st0" d="M89.4,12.5H10.6C7.5,12.5,5,15,5,18.1v52.5c0,3.1,2.5,5.6,5.6,5.6h31.9v4l-20.9,3.5c-1,0.2-1.7,1.1-1.5,2.2
				c0.2,0.9,0.9,1.6,1.8,1.6c0.1,0,0.2,0,0.3,0l22.3-3.7h10.9l22.3,3.7c0.1,0,0.2,0,0.3,0c0.9,0,1.7-0.6,1.8-1.6
				c0.2-1-0.5-2-1.5-2.2l-20.9-3.5v-4h31.9c3.1,0,5.6-2.5,5.6-5.6V18.1C95,15,92.5,12.5,89.4,12.5z M53.7,80h-7.5v-3.7h7.5V80z
				 M91.3,70.6c0,1-0.8,1.9-1.9,1.9H10.6c-1,0-1.9-0.8-1.9-1.9V18.1c0-1,0.8-1.9,1.9-1.9h78.8c1,0,1.9,0.8,1.9,1.9V70.6z"/>
		</g>
	</g>
</g>
</svg>
