<?xml version="1.0" encoding="utf-8"?>
<!-- Generator: Adobe Illustrator 23.0.3, SVG Export Plug-In . SVG Version: 6.00 Build 0)  -->
<svg version="1.1" id="Layer_1" xmlns="http://www.w3.org/2000/svg" xmlns:xlink="http://www.w3.org/1999/xlink" x="0px" y="0px"
	 viewBox="0 0 205.7 72.2" style="enable-background:new 0 0 205.7 72.2;" xml:space="preserve">
<style type="text/css">
	.st0{fill:#272626;}
</style>
<g>
	<path class="st0" d="M0.5,23.4h8.7c0.2,0,0.4,0.1,0.4,0.3l7.4,21c0.1,0.4,0.7,0.4,0.9,0l8-21.1c0.1-0.2,0.2-0.3,0.4-0.3h5.3
		c0.2,0,0.4,0.1,0.4,0.3L40,44.5c0.2,0.4,0.7,0.4,0.9,0l7.4-20.8c0.1-0.2,0.2-0.3,0.4-0.3h8.8c0.3,0,0.5,0.3,0.4,0.6L43.9,62.7
		c-0.1,0.2-0.2,0.3-0.4,0.3h-5.7c-0.2,0-0.4-0.1-0.4-0.3l-7.9-21.1c-0.2-0.4-0.7-0.4-0.9,0l-8.1,21.1c-0.1,0.2-0.2,0.3-0.4,0.3h-5.6
		c-0.2,0-0.4-0.1-0.4-0.3L0,24.1C-0.1,23.7,0.1,23.4,0.5,23.4z"/>
	<path class="st0" d="M99.3,46.1l-30.9,0c-0.3,0-0.5,0.3-0.5,0.6c0.5,2.6,1.7,4.6,3.6,6.2c2,1.7,4.6,2.5,7.7,2.5
		c3.6,0,6.7-1.2,9.4-3.7c0.1-0.1,0.3-0.2,0.5-0.1l7.6,3.6c0.3,0.1,0.4,0.5,0.2,0.7c-2,2.7-4.4,4.8-7.2,6.1
		c-2.9,1.4-6.4,2.1-10.4,2.1c-6.2,0-11.3-2-15.2-5.9c-3.9-3.9-5.9-8.8-5.9-14.7c0-6,1.9-11.1,5.8-15.1s8.8-6,14.7-6
		c6.2,0,11.3,2,15.2,6c3.9,4,5.9,9.3,5.9,15.8l0,1.4C99.8,45.9,99.6,46.1,99.3,46.1z M89.2,38.3c0.3,0,0.6-0.3,0.4-0.6
		c-0.7-1.9-1.9-3.5-3.7-4.8c-1.9-1.4-4.2-2.1-6.7-2.1c-2.8,0-5.2,0.8-7.3,2.3c-1.2,0.9-2.3,2.4-3.3,4.5c-0.2,0.3,0.1,0.7,0.4,0.7
		L89.2,38.3z"/>
	<path class="st0" d="M104.9,8.1h9c0.3,0,0.5,0.2,0.5,0.5v54c0,0.3-0.2,0.5-0.5,0.5h-9c-0.3,0-0.5-0.2-0.5-0.5v-54
		C104.4,8.3,104.6,8.1,104.9,8.1z"/>
	<path class="st0" d="M139.5,22.4c3.7,0,7.3,0.9,10.5,2.8c3.3,1.9,5.9,4.4,7.7,7.6s2.8,6.7,2.8,10.4c0,3.7-0.9,7.2-2.8,10.5
		c-1.9,3.3-4.4,5.8-7.6,7.6c-3.2,1.8-6.7,2.7-10.6,2.7c-5.7,0-10.5-2-14.5-6.1c-4-4-6-9-6-14.7c0-6.2,2.3-11.4,6.8-15.5
		C129.8,24.2,134.3,22.4,139.5,22.4z M139.7,31.8c-3.1,0-5.7,1.1-7.7,3.2c-2.1,2.1-3.1,4.9-3.1,8.2c0,3.4,1,6.2,3,8.4
		c2,2.1,4.6,3.2,7.7,3.2s5.7-1.1,7.8-3.2c2.1-2.2,3.1-4.9,3.1-8.3s-1-6.2-3-8.3C145.4,32.8,142.8,31.8,139.7,31.8z"/>
	<path class="st0" d="M199.7,32.7c-1.9-0.5-3.8-1-5.7-1.5c-1.1-0.3-2.2-0.6-3.3-1c-0.3-0.1-0.6,0.1-0.6,0.4v12.2
		c0,3.7-0.2,6.2-0.6,7.3c-0.6,1.5-1.4,2.7-2.6,3.5c-1.2,0.8-2.6,1.2-4.2,1.2s-3-0.4-4.2-1.2c-1.1-0.8-2-1.9-2.5-3.4
		c-0.5-1.4-0.8-4-0.8-7.7c0-1.2,0-2.3,0-3.5c0-2.1,0-4.3,0-6.4c0-1,0-2,0-3c0-0.2,0-0.4,0-0.6c-0.3-1.2-0.9-2.3-1.9-3.1
		c-0.9-0.8-2-1.3-3.2-1.7c-1.5-0.5-3-0.7-4.5-0.7c-0.3,0-0.5,0.2-0.5,0.5v16c0,6.3,0.4,10.7,1.2,13.1c1.1,3.5,3,6.2,5.7,8.1
		c2.7,1.9,6.2,2.9,10.5,2.9c4,0,7.3-0.8,9.9-2.5c2.6-1.7,4.6-4,5.9-7.2c1.1-2.5,1.6-7.3,1.6-14.2v-7C200,33,199.9,32.8,199.7,32.7z"
		/>
</g>
</svg>
