<?xml version="1.0" encoding="utf-8"?>
<!-- Generator: Adobe Illustrator 23.0.3, SVG Export Plug-In . SVG Version: 6.00 Build 0)  -->
<svg version="1.1" id="Capa_1" xmlns="http://www.w3.org/2000/svg" xmlns:xlink="http://www.w3.org/1999/xlink" x="0px" y="0px"
	 viewBox="0 0 100 81.4" style="enable-background:new 0 0 100 81.4;" xml:space="preserve">
<style type="text/css">
	.st0{fill:#2B9CE3;}
</style>
<g>
	<path class="st0" d="M50,80.6c-1.7,0-3.3-0.6-4.6-1.6c-3.5-2.8-8.6-4.3-14.9-4.3H2.5c-0.8,0-1.5-0.7-1.5-1.5c0-0.8,0.7-1.5,1.5-1.5
		h4.6V61.4c0-0.8,0.7-1.5,1.5-1.5h29.6c4.2,0,8.1,2,10.6,5.3l1.2,1.6l1.2-1.6c2.5-3.4,6.4-5.3,10.6-5.3h29.6c0.8,0,1.5,0.7,1.5,1.5
		v10.4h4.6c0.8,0,1.5,0.7,1.5,1.5c0,0.8-0.7,1.5-1.5,1.5h-28c-6.4,0-11.4,1.4-14.9,4.3C53.3,80.1,51.7,80.6,50,80.6z M61.8,62.9
		c-5.7,0-10.4,4.7-10.4,10.4v4.3l2.3-1.6c4-2.8,9.3-4.2,15.8-4.2h20.4v-8.9L61.8,62.9L61.8,62.9z M10.1,71.8h20.4
		c6.5,0,11.8,1.4,15.8,4.2l2.3,1.6v-4.3c0-5.7-4.7-10.4-10.4-10.4H10.1V71.8z"/>
	<path class="st0" d="M50,49.1c-0.4,0-0.7-0.1-1-0.4c-1.3-1.2-2.7-2.2-4.3-3l-13.1-6.5c-0.5-0.3-0.8-0.8-0.8-1.3V21.9L8.2,15.5
		c-1-0.3-1.1-1.2-1.1-1.4c0-0.3,0.1-1.1,1.1-1.4L49.6,0.8c0.1,0,0.3-0.1,0.4-0.1c0.1,0,0.3,0,0.4,0.1l41.4,11.8
		c1,0.3,1.1,1.2,1.1,1.4c0,0.3-0.1,1.1-1.1,1.4l-10.8,3.1v25.1c0,0.8-0.7,1.5-1.5,1.5c-0.8,0-1.5-0.7-1.5-1.5V19.4L69.2,22v15.8
		c0,0.6-0.3,1.1-0.8,1.3l-13.1,6.5c-1.6,0.8-3,1.8-4.3,3C50.7,48.9,50.4,49.1,50,49.1z M33.7,36.8L46,43c1.1,0.6,2.1,1.2,3.1,1.9
		l0.9,0.7l0.9-0.7c1-0.7,2-1.4,3.1-1.9l12.3-6.1v-14l-15.9,4.5c-0.1,0-0.3,0.1-0.4,0.1c-0.1,0-0.3,0-0.4-0.1l-15.9-4.5V36.8z
		 M14,14.1l36,10.3l36-10.3L50,3.8L14,14.1z"/>
</g>
</svg>
