<?xml version="1.0" encoding="utf-8"?>
<!-- Generator: Adobe Illustrator 23.0.3, SVG Export Plug-In . SVG Version: 6.00 Build 0)  -->
<svg version="1.1" id="Capa_1" xmlns="http://www.w3.org/2000/svg" xmlns:xlink="http://www.w3.org/1999/xlink" x="0px" y="0px"
	 viewBox="0 0 100 100" style="enable-background:new 0 0 100 100;" xml:space="preserve">
<style type="text/css">
	.st0{fill:#2B9CE3;}
</style>
<g>
	<g>
		<g>
			<path class="st0" d="M57,54.5c-1,0-1.8,0.8-1.8,1.8S56.1,58,57,58s1.8-0.8,1.8-1.8S58,54.5,57,54.5z"/>
			<path class="st0" d="M72.7,63.9c-1.6-1.6-5.6-6.1-8.8-13.3c-2.3-5.6-7.8-9.3-13.9-9.3c-6.1,0-11.5,3.6-13.9,9.3
				c-4,9.1-9.4,13.9-9.4,13.9c0,0,0,0,0,0c-3.2,2.9-5,6.9-5,11.2c0,5.2,2.5,9.8,6.8,12.6c4,2.7,9,3.5,13.7,2.2c2.3-0.6,5-1,7.8-1
				c2.8,0,5.6,0.4,7.9,1c4.5,1.3,9.5,0.6,13.6-2.1c4.4-2.9,6.9-7.5,6.9-12.7C78.5,71.1,76.4,66.8,72.7,63.9z M69.6,85.6
				c-3.2,2.1-7.1,2.7-10.7,1.7c-2.7-0.7-5.7-1.1-8.9-1.1c-3.1,0-6.1,0.4-8.8,1.1c-3.7,1-7.6,0.4-10.8-1.7c-3.3-2.2-5.2-5.7-5.2-9.7
				c0-3.3,1.4-6.4,3.8-8.6c0.4-0.3,6.1-5.4,10.3-15.2c0,0,0,0,0,0c1.8-4.3,6-7.1,10.6-7.1c4.7,0,8.9,2.8,10.7,7.1c0,0,0,0,0,0
				c3.4,7.9,7.9,12.8,9.6,14.5c0.1,0,0.1,0.1,0.2,0.1c2.8,2.2,4.5,5.5,4.5,9.1C74.9,79.8,73,83.3,69.6,85.6z"/>
			<path class="st0" d="M61.8,61.5c-0.5-0.8-1.6-1-2.4-0.5c-0.8,0.5-1,1.6-0.5,2.4c2.7,4.1,5.2,6.8,6.5,8.1c0.7,0.7,1.8,0.7,2.5,0
				c0.7-0.7,0.7-1.8,0-2.5C66.7,67.8,64.3,65.3,61.8,61.5z"/>
			<path class="st0" d="M44.3,32.8c1.7-3,2.4-6.9,1.9-10.8c-0.9-7.6-6.1-13.9-11.9-13.2c-2.6,0.3-5,2-6.6,4.9
				c-1.7,2.9-2.4,6.9-1.9,10.8C27.2,36.8,38.7,42.5,44.3,32.8z M30.8,15.4c1-1.7,2.5-3.1,4.4-3.1c3.5,0,6.9,4.6,7.6,10.1
				c0.4,3.2-0.2,6.3-1.5,8.6c-4.1,7.1-11,1.1-12-7C28.9,20.9,29.4,17.7,30.8,15.4z"/>
			<path class="st0" d="M27.5,51.7c0.5-3.1-0.1-6.6-1.7-9.8c-1.6-3.2-4.1-5.7-7-7.1c-3-1.5-6.1-1.6-8.7-0.2
				c-2.6,1.3-4.3,3.9-4.9,7.2c-0.5,3.1,0.1,6.6,1.7,9.8c1.6,3.2,4.1,5.7,7,7.1c2.8,1.4,6,1.6,8.7,0.2C25.2,57.6,26.9,55,27.5,51.7z
				 M21,55.8c-1.6,0.8-3.6,0.7-5.6-0.3c-2.2-1.1-4.1-3-5.4-5.5c-1.3-2.5-1.8-5.2-1.4-7.6c0.4-2.2,1.4-3.9,3-4.7c0,0,0,0,0,0
				c1.8-0.9,3.8-0.6,5.6,0.2c2.2,1.1,4.1,3,5.4,5.5c1.3,2.5,1.8,5.2,1.4,7.6C23.6,53.3,22.6,55,21,55.8z"/>
			<path class="st0" d="M63.2,37.7c5.3,0,10.2-5.8,11.1-13.2c0.9-7.9-3.1-15.7-9.4-15.7c-5.3,0-10.2,5.8-11.1,13.2
				C52.9,30,56.9,37.7,63.2,37.7z M57.3,22.5c0.7-5.5,4.1-10.1,7.6-10.1c0.2,0,0.3,0,0.4,0c1.9,0.2,3.3,1.8,4.2,3.5
				c1.2,2.3,1.6,5.3,1.3,8.2c-0.7,5.7-4.5,10.6-8,10.1c0,0,0,0,0,0c-1.6-0.2-3.1-1.5-4.2-3.5C57.4,28.4,56.9,25.4,57.3,22.5z"/>
			<path class="st0" d="M94.8,41.9c-1.1-6.8-7.3-10.1-13.6-7c-5.9,2.9-9.7,10.3-8.7,16.8c1.1,6.9,7.4,10.1,13.6,7
				C92,55.8,95.9,48.4,94.8,41.9z M84.6,55.5c-2,1-4,1.1-5.6,0.3v0c-1.6-0.8-2.7-2.5-3-4.7c-0.8-4.9,2.3-10.9,6.8-13.1
				c4.1-2,7.8-0.1,8.6,4.4C92.2,47.4,89.1,53.3,84.6,55.5z"/>
		</g>
	</g>
</g>
</svg>
