<?xml version="1.0" encoding="utf-8"?>
<!-- Generator: Adobe Illustrator 23.0.3, SVG Export Plug-In . SVG Version: 6.00 Build 0)  -->
<svg version="1.1" id="Capa_1" xmlns="http://www.w3.org/2000/svg" xmlns:xlink="http://www.w3.org/1999/xlink" x="0px" y="0px"
	 viewBox="0 0 100 87.5" style="enable-background:new 0 0 100 87.5;" xml:space="preserve">
<style type="text/css">
	.st0{fill:#FD8930;}
</style>
<g>
	<path class="st0" d="M64.7,78.7c-0.6,0-1.2-0.5-1.2-1.2v-8.4H11.3c-0.7,0-1.2-0.6-1.2-1.2v-53c0-0.7,0.6-1.2,1.2-1.2h8.5V10
		c0-0.7,0.6-1.2,1.2-1.2h19.5c3.4,0,6.6,1.6,8.6,4.3l0.9,1.3l1-1.3c2-2.8,5.2-4.3,8.6-4.3h19.5c0.7,0,1.2,0.6,1.2,1.2v3.6h8.5
		c0.7,0,1.2,0.6,1.2,1.2v53.1c0,0.7-0.6,1.2-1.2,1.2H75.5v8.5c0,0.7-0.7,1.2-1.2,1.2c-0.2,0-0.6-0.1-0.8-0.3l-4-4l-4,3.8
		C65.2,78.7,64.9,78.7,64.7,78.7z M65.8,74.6l2.8-2.8c0.2-0.2,0.6-0.3,0.8-0.3c0.3,0,0.7,0.2,0.8,0.3l2.8,2.8V59.5h-7.3L65.8,74.6
		L65.8,74.6z M75.5,66.7h12V16h-7.3v42.2c0,0.7-0.6,1.2-1.2,1.2h-3.6L75.5,66.7L75.5,66.7z M59.6,59.5c-3,0-5.7,1.5-7.3,4.2
		c-0.2,0.4-0.6,0.6-1.1,0.6v2.4h12.1v-7.3H59.6z M12.5,66.7h36.2v-2.4c-0.4,0-0.8-0.2-1.1-0.6c-1.5-2.7-4.2-4.2-7.3-4.2H20.9
		c-0.7,0-1.2-0.6-1.2-1.2V16h-7.2V66.7z M22.1,57h18.3c2.3,0,4.6,0.8,6.5,2.2l2,1.5v-41c0-4.6-3.8-8.5-8.5-8.5H22.1V57z M59.6,11.2
		c-4.6,0-8.5,3.8-8.5,8.5v41.1l2-1.5c1.9-1.5,4.2-2.2,6.5-2.2h18.3V11.2H59.6z"/>
</g>
</svg>
