<?xml version="1.0" encoding="utf-8"?>
<!-- Generator: Adobe Illustrator 23.0.3, SVG Export Plug-In . SVG Version: 6.00 Build 0)  -->
<svg version="1.1" id="Layer_1" xmlns="http://www.w3.org/2000/svg" xmlns:xlink="http://www.w3.org/1999/xlink" x="0px" y="0px"
	 viewBox="0 0 100 100" style="enable-background:new 0 0 100 100;" xml:space="preserve">
<g>
	<path d="M87.5,23.8H70c-1.5,0-2.9-0.6-4-1.6L62.9,19c-1.8-1.8-4.1-2.7-6.6-2.7H43.7c-2.5,0-4.9,1-6.6,2.7L34,22.1
		c-1.1,1.1-2.5,1.6-4,1.6H12.5c-4.1,0-7.5,3.4-7.5,7.5v1v0.8v7.5v26.2v6.7h0.2C5.1,73.8,5,74.1,5,74.4v1.9c0,4.1,3.4,7.5,7.5,7.5h75
		c4.1,0,7.5-3.4,7.5-7.5v-45C95,27.1,91.6,23.8,87.5,23.8z M50,72.5c-10.3,0-18.8-8.4-18.8-18.8S39.7,35,50,35s18.8,8.4,18.8,18.8
		C68.8,64.1,60.3,72.5,50,72.5z M80,42.5c-2.1,0-3.7-1.7-3.7-3.7S77.9,35,80,35c2.1,0,3.7,1.7,3.7,3.7S82.1,42.5,80,42.5z"/>
	<path d="M50,38.8c-8.3,0-15,6.7-15,15s6.7,15,15,15s15-6.7,15-15S58.3,38.8,50,38.8z M50,46.3c-4.1,0-7.5,3.4-7.5,7.5
		c0,1-0.8,1.9-1.9,1.9s-1.9-0.8-1.9-1.9c0-6.2,5-11.3,11.3-11.3c1,0,1.9,0.8,1.9,1.9S51,46.3,50,46.3z"/>
</g>
</svg>
