<?xml version="1.0" encoding="utf-8"?>
<!-- Generator: Adobe Illustrator 23.0.3, SVG Export Plug-In . SVG Version: 6.00 Build 0)  -->
<svg version="1.1" id="Layer_1" xmlns="http://www.w3.org/2000/svg" xmlns:xlink="http://www.w3.org/1999/xlink" x="0px" y="0px"
	 viewBox="0 0 100 100" style="enable-background:new 0 0 100 100;" xml:space="preserve">
<style type="text/css">
	.st0{fill:#282727;}
</style>
<path class="st0" d="M93.3,85.1L58.2,50l35.1-35.1c2.3-2.3,2.3-6,0-8.2C92.2,5.6,90.7,5,89.2,5c-1.6,0-3,0.6-4.1,1.7L50,41.8
	L14.9,6.7C13.8,5.6,12.4,5,10.8,5c-1.6,0-3,0.6-4.1,1.7c-2.3,2.3-2.3,6,0,8.2L41.8,50L6.7,85.1c-2.3,2.3-2.3,6,0,8.2
	c2.3,2.3,6,2.3,8.2,0L50,58.2l35.1,35.1c1.1,1.1,2.6,1.7,4.1,1.7c1.6,0,3-0.6,4.1-1.7c1.1-1.1,1.7-2.6,1.7-4.1
	C95,87.6,94.4,86.2,93.3,85.1z"/>
</svg>
