<?xml version="1.0" encoding="utf-8"?>
<!-- Generator: Adobe Illustrator 23.0.3, SVG Export Plug-In . SVG Version: 6.00 Build 0)  -->
<svg version="1.1" id="Layer_1" xmlns="http://www.w3.org/2000/svg" xmlns:xlink="http://www.w3.org/1999/xlink" x="0px" y="0px"
	 viewBox="0 0 100 100" style="enable-background:new 0 0 100 100;" xml:space="preserve">
<style type="text/css">
	.st0{opacity:0.75;fill:#FFFFFF;}
	.st1{fill:#FFFFFF;}
</style>
<path class="st0" d="M50,5C25.1,5,5,25.1,5,50s20.1,45,45,45s45-20.1,45-45S74.9,5,50,5z M71.9,40.2L48.9,65.7
	c-0.8,0.9-2,1.4-3.2,1.4h-0.1c-1.2,0-2.3-0.5-3.2-1.3L28.2,51.1c-1.7-1.7-1.7-4.5,0-6.2c1.7-1.7,4.5-1.7,6.2,0c0,0,0,0,0.1,0.1
	l11,11.3l19.9-22c1.7-1.8,4.4-1.9,6.2-0.2C73.4,35.7,73.5,38.4,71.9,40.2z"/>
<path class="st1" d="M50,12.9c-20.5,0-37.1,16.6-37.1,37.1S29.5,87.1,50,87.1S87.1,70.5,87.1,50S70.5,12.9,50,12.9z M71.9,40.2
	L48.9,65.7c-0.8,0.9-2,1.4-3.2,1.4h-0.1c-1.2,0-2.3-0.5-3.2-1.3L28.2,51.1c-1.7-1.7-1.7-4.5,0-6.2c1.7-1.7,4.5-1.7,6.2,0
	c0,0,0,0,0.1,0.1l11,11.3l19.9-22c1.7-1.8,4.4-1.9,6.2-0.2C73.4,35.7,73.5,38.4,71.9,40.2z"/>
</svg>
