<?xml version="1.0" encoding="utf-8"?>
<!-- Generator: Adobe Illustrator 23.0.3, SVG Export Plug-In . SVG Version: 6.00 Build 0)  -->
<svg version="1.1" id="Layer_1" xmlns="http://www.w3.org/2000/svg" xmlns:xlink="http://www.w3.org/1999/xlink" x="0px" y="0px"
	 viewBox="0 0 512 512" style="enable-background:new 0 0 512 512;" xml:space="preserve">
<style type="text/css">
	.st0{fill:#FFFFFF;}
</style>
<path class="st0" d="M212.5,416.8c-6.5-6.5-16.9-6.5-23.4,0l-43.3,43.3c-6.5,6.4-6.5,16.9,0,23.3c6.4,6.4,16.9,6.5,23.4,0l43.3-43.3
	C219,433.7,219,423.3,212.5,416.8L212.5,416.8z M95.2,299.5c-6.4-6.5-16.9-6.5-23.3,0l-43.3,43.3c-6.5,6.5-6.5,16.9,0,23.4
	c6.4,6.4,16.9,6.5,23.3,0l43.3-43.3C101.6,316.4,101.6,305.9,95.2,299.5L95.2,299.5z M173.4,338.6c-6.5-6.5-16.9-6.4-23.4,0
	L40.4,448.3c-6.5,6.5-6.5,16.9,0,23.4c6.4,6.4,16.9,6.5,23.4,0l109.7-109.7C179.9,355.5,179.9,345,173.4,338.6z M511.2,21.7
	l-156.5,479c-4.4,13.5-22.8,15.5-30,3.2l-105.2-181c-3.3-5.7-2.9-12.8,1-18.1l37.8-50.9l-50.9,37.8c-5.3,3.9-12.4,4.3-18.1,1
	L8.2,187.3c-12.3-7.1-10.4-25.5,3.2-30l479-156.5C503.1-3.3,515.4,8.8,511.2,21.7L511.2,21.7z"/>
</svg>
