<?xml version="1.0" encoding="utf-8"?>
<!-- Generator: Adobe Illustrator 23.0.3, SVG Export Plug-In . SVG Version: 6.00 Build 0)  -->
<svg version="1.1" id="Capa_1" xmlns="http://www.w3.org/2000/svg" xmlns:xlink="http://www.w3.org/1999/xlink" x="0px" y="0px"
	 viewBox="0 0 100 100" style="enable-background:new 0 0 100 100;" xml:space="preserve">
<g>
	<circle cx="50.6" cy="47.6" r="9.2"/>
	<path d="M87.2,17.4l-59.7-6.8c-2.3-0.3-4.7,0.3-6.4,1.9c-1.8,1.4-2.9,3.4-3.2,5.7l-1.1,9h-3.4c-4.8,0-8.4,4.3-8.4,9.1v44.7
		c-0.1,4.6,3.5,8.4,8.1,8.5c0.1,0,0.2,0,0.3,0h60c4.8,0,9.2-3.7,9.2-8.5v-1.7c1.5-0.3,2.9-0.9,4.2-1.7c1.8-1.5,2.9-3.6,3.2-5.9
		l5-44.4C95.5,22.3,92,18,87.2,17.4z M78.2,54.6L78.2,54.6L54.4,68.5c-2,1.2-4.6,1-6.4-0.5l-12-10.6c-3.4-3-8.5-3.1-12.1-0.4
		L9.4,67.4V36.2c0-2.4,1.6-4.7,4-4.7h60c2.6,0.1,4.6,2.1,4.8,4.7V54.6z M90.6,26.6C90.6,26.6,90.6,26.6,90.6,26.6L85.4,71
		c0,1.2-0.5,2.2-1.4,3c-0.4,0.4-1.4,0.7-1.4,0.9V36.2c-0.2-5-4.2-9-9.2-9.1H21.2l1-8.5c0.2-1.1,0.8-2.1,1.6-2.8c1-0.7,2.1-1,3.3-0.9
		l59.6,6.9C89,22,90.8,24.2,90.6,26.6z"/>
</g>
</svg>
