<?xml version="1.0" encoding="utf-8"?>
<!-- Generator: Adobe Illustrator 23.0.3, SVG Export Plug-In . SVG Version: 6.00 Build 0)  -->
<svg version="1.1" id="Layer_1" xmlns="http://www.w3.org/2000/svg" xmlns:xlink="http://www.w3.org/1999/xlink" x="0px" y="0px"
	 viewBox="0 0 70.1 80" style="enable-background:new 0 0 70.1 80;" xml:space="preserve">
<style type="text/css">
	.st0{fill:#F2B93A;}
	.st1{fill:#FABF3C;}
</style>
<g>
	<g>
		<circle class="st0" cx="51" cy="68.5" r="11.5"/>
	</g>
	<g>
		<path class="st1" d="M65.4,3.7c-1.8-1.4-4.1-2.3-6.5-2.8c-1.2-0.3-2.5-0.4-3.7-0.6C51.3-0.1,47.4,0,43.6,0
			C35.3,0.2,27,0.5,18.7,0.5c-3.3,0-6.6,0-9.8-0.1c-0.5,0-1,0-1.5-0.1c-0.5,0-1,0-1.5-0.1c-0.5,0-1,0-1.5-0.1c-1,0-1.9-0.1-2.9-0.2
			c-0.2,0-0.4,0-0.7,0c-0.3,0-0.6-0.1-0.8,0C0,0.2,0,0.4,0,0.6c0,0.5,0,1.1,0,1.6c0,0.2,0,0.5,0,0.7c0,0.3,0,0.5,0,0.8
			c0,0.3,0,0.5,0,0.8c0,0.3,0,0.5,0,0.8c0,0.2,0,0.5,0,0.7c0,0.2,0,0.4,0,0.6C0,6.7,0,6.8,0,7c0,0.1,0,0.2,0,0.4c0,0.1,0,0.1,0,0.2
			c0,0,0,0,0,0c0,2.5,0.1,5,0.5,7.5c0.2,1.1,0.4,2.2,0.6,3.3c0.1,0.6,0.3,1.1,0.5,1.6c0.1,0.4,0.6,1.1,0.6,1.5
			c1.6,3.9,4.1,7.4,7.2,10.1c0,0,0.1,0.1,0.1,0.1c4.9,4.2,11,6.5,17.2,8.2c7.8,2.2,15.6,4,23.2,6.7c6.5,2.3,15.8,5.3,18.9,12.1
			c0.2,0.5,0.4,1,0.5,1.5c0,0,0-5.6,0-5.6c0-11.5,0.3-23,0.7-34.4c0.1-3.9,0.4-8-1-11.7C68.3,6.5,67,4.9,65.4,3.7z"/>
	</g>
</g>
</svg>
