<?xml version="1.0" encoding="utf-8"?>
<!-- Generator: Adobe Illustrator 23.0.3, SVG Export Plug-In . SVG Version: 6.00 Build 0)  -->
<svg version="1.1" id="Layer_1" xmlns="http://www.w3.org/2000/svg" xmlns:xlink="http://www.w3.org/1999/xlink" x="0px" y="0px"
	 viewBox="0 0 100 99.7" style="enable-background:new 0 0 100 99.7;" xml:space="preserve">
<style type="text/css">
	.st0{fill:#3C7FFA;}
</style>
<g>
	<path class="st0" d="M50,94.7c-3.3,0-7.2-0.9-8.4-2.8l-0.1-0.2H9.2c-1.3,0-2.4-0.6-3.2-1.5C5.1,89.3,4.8,88,5,86.8l6.7-34.5
		c0.3-1.2,1.3-2.1,2.6-2.1h3.3l0.3-1.7c0.2-1.1,1.1-2,2.2-2.2c0.3,0,0.5-0.1,0.7-0.1c0.2,0,0.4,0,0.5-0.1l0.6-0.1l0-0.6
		c-1.1-3.5-0.6-7.2,1.4-10.2l0.1-0.2v-0.2c-0.1-0.4-0.2-0.8-0.2-1.2c0-2.4,1.4-4.5,3.6-5.4l0.3-0.1v-0.3c0.2-2.2,1.3-4.1,3-5.4
		c1.2-0.8,2.7-1.3,4.1-1.3c0.6,0,1.4,0.1,2,0.3l0.3,0.1l0.2-0.3c1.9-2.5,4.9-3.9,8-3.9c1.9,0,3.9,0.6,5.5,1.7l0.3,0.2l0.3-0.3
		c1.1-1,2.5-1.6,3.9-1.6c0.3,0,0.5,0,0.7,0c1.7,0.2,3.2,1.2,4.1,2.7l0.2,0.2h0.3c0.1,0,0.2,0,0.2,0c0.1,0,0.2,0,0.2,0
		c6.1,0,11.2,4.4,12.3,10.3l0.1,0.3l0.3,0.1c1.7,0.4,3.1,1.4,3.9,2.9c0.8,1.5,0.9,3.3,0.3,4.9l-0.1,0.2l0.1,0.2
		c1.2,1.9,1.6,4.2,1.1,6.5l-0.1,0.5l0.5,0.1c0.1,0,0.3,0,0.4,0c0.2,0,0.4,0,0.6,0.1c1.1,0.2,2,1,2.2,2.2L82,50h3.3
		c1.3,0,2.3,0.9,2.6,2.1l7,34.6c0.3,1.2-0.1,2.5-0.9,3.4c-0.8,0.9-1.9,1.5-3.2,1.5H58.4l-0.1,0.2C57.2,93.6,53.9,94.7,50,94.7z
		 M43.4,90.6L43.4,90.6c0.6,0.8,2.9,1.8,6.6,1.8s6.1-1.1,6.5-1.7l0.1-0.1l-0.6-7.1l-0.6,0.1c-1.7,0.5-3.4,1-5,1.7l0,0
		c-0.2,0.1-0.3,0.1-0.5,0.1s-0.4,0-0.5-0.1l0,0c-1.7-0.6-3.3-1.3-5-1.7l-0.6-0.1L43.4,90.6z M68.1,82.1c-3.2,0-6.4,0.3-9.6,0.9
		l-0.4,0.1l0.6,6.4h32.1c0.6,0,1.2-0.3,1.6-0.7c0.4-0.5,0.6-1,0.5-1.7L86,52.3h-3.4l4.9,29.5c0.2,0.9-0.2,1.8-0.8,2.4
		c-0.5,0.5-1.1,0.6-1.7,0.6c-0.3,0-0.6,0-0.7-0.1C78.9,82.9,73.5,82.1,68.1,82.1z M7.2,87.2c-0.1,0.6,0,1.2,0.5,1.7
		c0.5,0.5,0.9,0.7,1.6,0.7h32.1l0.6-6.4L41.4,83c-3.2-0.6-6.4-0.9-9.6-0.9c-5.4,0-10.8,0.8-16,2.5c-0.3,0.1-0.6,0.1-0.7,0.1
		c-0.6,0-1.3-0.3-1.7-0.6c-0.7-0.6-1-1.5-0.9-2.4l5-29.5h-3.4L7.2,87.2z M68.2,79.9c5.6,0,11.2,0.9,16.5,2.7l0.7,0.3l-5.7-34.4
		l-0.4-0.1c-0.5-0.1-0.8-0.1-1.2-0.2h-0.6l-0.2,0.3c-0.3,0.5-0.6,0.8-0.8,1.2l-0.1,0.1v0.1c-0.6,3-2.4,5.7-5,7.5l-0.4,0.3l0.2,0.4
		c0.6,1,1,2,1.3,3c0.2,0.5,0.2,0.8,0.2,1.3c0,1.7-1,3.2-2.6,3.9c-0.4,0.2-0.9,0.3-1.5,0.3c-1.3,0-2.5-0.6-3.4-1.6
		c-0.9-1-2-1.8-3.3-2.2c-4.4-1.5-6.4-3.1-7.1-5.7l-0.1-0.4h-0.4c-1-0.1-2.1-0.3-3.1-0.6L51.1,56l-0.2,0.2c-1.7,1.6-3.9,2.5-6.2,2.5
		c-0.5,0-1,0-1.6-0.1c-2.8-0.5-5.2-2.3-6.6-4.8l-0.2-0.3L36,53.7C35,53.9,34,54,33.1,54c-4.1,0-7.9-2.1-10.1-5.6l-0.2-0.3l-0.6,0
		c-0.6,0.1-1.2,0.2-1.7,0.3l-0.4,0.1l-5.7,34.4l0.7-0.3c5.3-1.7,10.9-2.7,16.5-2.7c5.7,0,11.2,0.9,16.6,2.7l0.6,0.2V62.9
		c0-0.6,0.5-1.1,1.1-1.1c0.6,0,1.1,0.5,1.1,1.1v19.8l0.6-0.2C57,80.8,62.6,79.9,68.2,79.9z M59.6,54c0.3,0,0.6,0.1,0.7,0.3
		c0.3,0.3,0.5,0.6,0.4,1S60.4,56,60,56.1c-0.7,0.2-1.5,0.4-2.3,0.5l-0.6,0.1l0.3,0.6c0.6,1.4,2.3,2.4,5.4,3.4
		c1.7,0.6,3.2,1.5,4.3,2.8c0.5,0.5,1,0.8,1.7,0.8c0.3,0,0.6-0.1,0.8-0.2c0.8-0.4,1.3-1.1,1.3-1.9c0-0.2,0-0.5-0.1-0.6
		c-0.3-0.9-0.7-1.8-1.2-2.8l-0.3-0.3l-0.4,0.2c-0.8,0.4-1.7,0.6-2.7,0.7c-0.1,0-0.1,0-0.2,0c-0.6,0-1-0.5-1.1-1
		c0-0.6,0.4-1.1,0.9-1.2c2.7-0.5,5-1.8,6.6-4l0.8-1.1L72,52.5c-0.8,0.3-1.7,0.4-2.6,0.4c-1.5,0-2.8-0.4-4.1-1
		c-0.6-0.4-1.2-0.7-1.7-1.2l-0.2-0.2l-0.3,0.1c-0.6,0.3-1.2,0.4-1.7,0.4c-1.8,0-3.6-1-4.4-2.8c-0.2-0.4-0.2-0.7,0.1-1.1
		c0.2-0.3,0.6-0.5,0.9-0.5c0,0,0,0,0.1,0c0.4,0,0.7,0.3,0.9,0.6c0.4,0.7,1,1.2,1.7,1.4c0.2,0.1,0.5,0.1,0.6,0.1
		c0.6,0,1.1-0.2,1.6-0.5c1.1-0.7,1.5-2.3,0.9-3.5c-0.2-0.4-0.2-0.7,0.1-1.1c0.2-0.3,0.6-0.5,0.9-0.5c0,0,0,0,0.1,0
		c0.4,0,0.7,0.3,0.9,0.6c0.8,1.6,0.6,3.5-0.4,5L65.2,49l0.4,0.3c0.3,0.2,0.6,0.4,0.8,0.5c1,0.5,2.1,0.7,3.2,0.7c2,0,3.9-0.8,5.2-2.3
		l0,0c1.7-1.9,2.3-4.6,1.4-7l-0.4-0.4l-0.5,0.4c-0.4,0.3-0.6,0.5-1.1,0.6c-0.2,0.1-0.3,0.1-0.5,0.1c-0.5,0-0.9-0.4-1-0.8
		c-0.1-0.5,0.1-1,0.6-1.2c0.7-0.4,1.3-0.8,1.7-1.6c0.8-1.5,0.6-3.4-0.7-4.6c-0.6-0.6-1.6-0.9-2.5-0.9c-0.8,0-1.6,0.3-2.2,0.7
		c-0.2,0.2-0.5,0.2-0.6,0.2s-0.3,0-0.5-0.1c-0.4-0.2-0.6-0.5-0.6-0.8c-0.1-0.4,0.1-0.7,0.5-1c0.6-0.5,1.2-0.7,1.8-0.9l0.5-0.1
		l-0.1-0.5c-1.1-4.3-5-7.6-9.5-7.9h-0.5v0.5c0,0.1,0,0.1,0,0.2c0,0.1,0,0.1,0,0.1c0,0.6-0.5,1.1-1.1,1.1c-0.6,0-1.1-0.5-1.1-1.1
		c0-2-1.7-3.7-3.7-3.7c-2,0-3.7,1.7-3.7,3.7c0,0.6-0.5,1.1-1.1,1.1c-0.6,0-1.1-0.5-1.1-1.1s0.1-1.3,0.4-1.8l0.1-0.4l-0.2-0.2
		c-1.3-0.8-2.8-1.3-4.3-1.3c-2.8,0-5.4,1.5-6.9,3.9c-0.4,0.6-0.6,1.4-0.8,2c-0.1,0.5-0.6,0.7-1,0.7c-0.1,0-0.2,0-0.3,0
		c-0.6-0.2-0.9-0.7-0.8-1.3c0.1-0.3,0.2-0.6,0.3-0.9l0.2-0.6l-0.6-0.1c-0.2,0-0.5-0.1-0.6-0.1l0,0c-2.4,0-4.5,1.7-5,4l-0.1,0.5
		l0.5,0.1c1.6,0.2,3.1,1,4,2.3c0.3,0.3,0.3,0.7,0.1,1.1c-0.2,0.4-0.5,0.6-0.8,0.6h-0.1c-0.4,0-0.6-0.2-0.8-0.5
		c-0.6-0.9-1.7-1.5-2.9-1.5c-1.7,0-3.1,1.1-3.6,2.8c-0.5,1.6,0.3,3.3,1.7,4.1h0.1c0.5,0.4,0.6,0.9,0.3,1.4c-0.2,0.4-0.6,0.6-0.9,0.6
		c-0.2,0-0.4-0.1-0.6-0.2c-0.4-0.3-0.7-0.6-1-0.8l-0.5-0.5l-0.4,0.7c-1.5,3.4-0.9,7.3,1.5,10.1c1.8,2.3,4.7,3.6,7.6,3.6
		c0.7,0,1.4-0.1,2.1-0.2l0.5-0.1L35.8,51c-0.1-0.5-0.1-1-0.1-1.5v-0.4h-0.4c-2.5-0.3-4.3-2.4-4.4-4.9c0-0.6,0.5-1.1,1.1-1.1
		c0.3,0,0.6,0.1,0.7,0.3c0.2,0.2,0.4,0.5,0.4,0.7l0,0c0,1.5,1.2,2.7,2.6,2.8H36l0.1-0.4c0.2-0.6,0.5-1.3,0.8-1.9
		c0.2-0.4,0.6-0.6,0.9-0.6c0.5,0,0.7,0.2,0.9,0.6c0.2,0.4,0.2,0.7,0,1.1c-1.8,3.1-1.1,7.2,1.9,9.3c1.2,0.9,2.7,1.4,4.1,1.4
		c2,0,3.9-0.9,5.3-2.4c0.2-0.3,0.5-0.4,0.8-0.4c0.2,0,0.3,0,0.4,0.1c1.4,0.6,2.8,0.8,4.4,0.8c0.3,0,0.6,0,0.9,0
		c0.9-0.1,1.8-0.3,2.8-0.5C59.4,54,59.5,54,59.6,54z"/>
	<path class="st0" d="M46,49c-0.6,0-1.1-0.5-1.1-1.1c0-0.6,0.5-1.1,1.1-1.1c1.7,0,3.2-0.8,4.1-2.1l0.4-0.6l-0.6-0.2
		c-1.8-0.4-3.4-1.4-4.7-2.7c-0.4-0.5-0.4-1.1,0.1-1.6c0.2-0.2,0.5-0.3,0.7-0.3c0.3,0,0.6,0.1,0.8,0.4c1.3,1.4,3,2.1,5,2.1
		c1.4,0,2.7-0.4,3.8-1.2c1.5-1,2.4-2.5,2.8-4.2c0.1-0.4,0.4-0.7,0.7-0.8c0.1,0,0.3-0.1,0.4-0.1c0.3,0,0.6,0.1,0.7,0.3
		c0.3,0.3,0.5,0.6,0.4,1c-0.7,3.6-3.6,6.4-7.3,7h-0.3l-0.1,0.3C51.6,47.1,48.9,49,46,49L46,49z"/>
	<path class="st0" d="M39.5,37.3c-0.3,0-0.6-0.1-0.7-0.4c-0.2-0.2-0.4-0.5-0.4-0.7c0-3.7,2.9-6.6,6.6-6.6c0.6,0,1.1,0.5,1.1,1.1
		c0,0.6-0.5,1.1-1.1,1.1c-1.2,0-2.3,0.5-3.1,1.3c-0.8,0.8-1.3,1.9-1.3,3.1C40.6,36.8,40.1,37.3,39.5,37.3z"/>
	<path class="st0" d="M50,8.7c-0.6,0-1.1-0.5-1.1-1.1V6.1C48.9,5.5,49.4,5,50,5c0.6,0,1.1,0.5,1.1,1.1v1.6C51,8.2,50.5,8.7,50,8.7z"
		/>
	<path class="st0" d="M74.7,19.3c-0.1,0-0.2,0-0.3,0c-0.4-0.1-0.6-0.4-0.7-0.7c-0.1-0.4,0-0.8,0.3-1.1l1.6-1.6
		c0.2-0.2,0.5-0.4,0.8-0.4c0.1,0,0.2,0,0.3,0c0.4,0.1,0.6,0.4,0.7,0.7c0.1,0.4,0,0.8-0.3,1.1L75.5,19C75.2,19.1,75,19.3,74.7,19.3
		L74.7,19.3z"/>
	<path class="st0" d="M25.2,19.2c-0.3,0-0.6-0.1-0.7-0.4l-1.6-1.6c-0.3-0.3-0.4-0.6-0.3-1.1c0.1-0.4,0.4-0.6,0.7-0.7
		c0.1,0,0.2,0,0.3,0c0.3,0,0.6,0.1,0.7,0.4l1.6,1.6c0.3,0.3,0.4,0.7,0.3,1.2C26,19.1,25.7,19.2,25.2,19.2z"/>
	<path class="st0" d="M37.1,12.8c-0.5,0-0.8-0.3-1-0.6L34.3,8c-0.2-0.4-0.1-0.8,0.1-1.1s0.6-0.5,0.8-0.5c0.1,0,0.1,0,0.2,0
		c0.4,0.1,0.7,0.3,0.8,0.6l1.7,4.2c0.1,0.3,0.1,0.6,0,0.8c-0.1,0.3-0.4,0.5-0.6,0.6C37.3,12.8,37.1,12.8,37.1,12.8L37.1,12.8z"/>
	<path class="st0" d="M62.8,12.8c-0.2,0-0.3,0-0.5-0.1c-0.3-0.1-0.5-0.4-0.6-0.6c-0.1-0.3-0.1-0.6,0-0.8l1.7-4.2
		c0.2-0.5,0.6-0.7,1.1-0.7c0.2,0,0.3,0,0.5,0.1c0.3,0.1,0.5,0.4,0.6,0.6c0.1,0.3,0.1,0.6,0,0.8l-1.7,4.2
		C63.8,12.5,63.3,12.8,62.8,12.8L62.8,12.8z"/>
	<path class="st0" d="M81.2,31.1c-0.6,0-1-0.4-1.1-0.9c-0.1-0.5,0.2-1,0.6-1.2l4.2-1.7c0.1-0.1,0.3-0.1,0.5-0.1
		c0.3,0,0.5,0.1,0.6,0.2c0.3,0.3,0.5,0.6,0.5,1c-0.1,0.4-0.3,0.7-0.6,0.8l-4.2,1.7C81.5,31.1,81.3,31.1,81.2,31.1L81.2,31.1z"/>
	<path class="st0" d="M18.7,31.1c-0.2,0-0.3,0-0.5-0.1L14,29.2c-0.3-0.1-0.5-0.4-0.6-0.6c-0.1-0.3-0.1-0.6,0-0.8
		c0.2-0.5,0.6-0.6,1-0.6c0.2,0,0.3,0,0.5,0.1l4.2,1.7c0.3,0.1,0.5,0.4,0.6,0.6c0.1,0.3,0.1,0.6,0,0.8C19.6,30.9,19.2,31.1,18.7,31.1
		L18.7,31.1z"/>
</g>
</svg>
