<?xml version="1.0" encoding="utf-8"?>
<!-- Generator: Adobe Illustrator 23.0.3, SVG Export Plug-In . SVG Version: 6.00 Build 0)  -->
<svg version="1.1" id="Capa_1" xmlns="http://www.w3.org/2000/svg" xmlns:xlink="http://www.w3.org/1999/xlink" x="0px" y="0px"
	 viewBox="0 0 292 228" style="enable-background:new 0 0 292 228;" xml:space="preserve">
<g>
	<g>
		<path d="M114.5,227.9c-2.7,0-5.2-1-7-2.9L3,121c-3.9-3.9-3.9-10.2,0-14.1l104.5-104c1.9-1.9,4.3-2.9,7-2.9s5.3,1.1,7.2,3
			c3.9,3.9,3.8,10.2-0.1,14.2L34.2,104H282c5.5,0,10,4.5,10,10s-4.5,10-10,10H34.1l87.4,86.8c1.9,1.9,3,4.4,3,7.1
			c0,2.7-1,5.2-2.9,7.1C119.7,226.9,117.2,227.9,114.5,227.9z"/>
	</g>
</g>
</svg>
