<?xml version="1.0" encoding="utf-8"?>
<!-- Generator: Adobe Illustrator 23.0.3, SVG Export Plug-In . SVG Version: 6.00 Build 0)  -->
<svg version="1.1" id="Layer_1" xmlns="http://www.w3.org/2000/svg" xmlns:xlink="http://www.w3.org/1999/xlink" x="0px" y="0px"
	 viewBox="0 0 168 59.4" style="enable-background:new 0 0 168 59.4;" xml:space="preserve">
<style type="text/css">
	.st0{fill:#272626;}
	.st1{fill:#F2B93A;}
	.st2{fill:#FABF3C;}
</style>
<g>
	<g>
		<path class="st0" d="M0.3,30.4h5.9c0.1,0,0.3,0.1,0.3,0.2l5.1,14.3c0.1,0.3,0.5,0.3,0.6,0l5.4-14.3c0-0.1,0.2-0.2,0.3-0.2h3.6
			c0.1,0,0.2,0.1,0.3,0.2l5.3,14.1c0.1,0.3,0.5,0.3,0.6,0l5.1-14.1c0-0.1,0.2-0.2,0.3-0.2h6c0.2,0,0.4,0.2,0.3,0.4l-9.6,26.3
			c0,0.1-0.2,0.2-0.3,0.2h-3.8c-0.1,0-0.3-0.1-0.3-0.2L20,42.8c-0.1-0.3-0.5-0.3-0.6,0l-5.5,14.4c0,0.1-0.2,0.2-0.3,0.2H9.8
			c-0.1,0-0.3-0.1-0.3-0.2L0,30.9C-0.1,30.7,0.1,30.4,0.3,30.4z"/>
		<path class="st0" d="M67.5,45.9l-21,0c-0.2,0-0.4,0.2-0.3,0.4c0.4,1.7,1.2,3.1,2.4,4.2c1.4,1.1,3.1,1.7,5.2,1.7
			c2.5,0,4.6-0.8,6.4-2.5c0.1-0.1,0.2-0.1,0.3-0.1l5.2,2.4c0.2,0.1,0.2,0.3,0.1,0.5c-1.4,1.9-3,3.2-4.9,4.2c-2,1-4.3,1.4-7.1,1.4
			c-4.2,0-7.7-1.3-10.3-4s-4-6-4-10c0-4.1,1.3-7.5,4-10.2s6-4.1,10-4.1c4.2,0,7.7,1.4,10.3,4.1c2.7,2.7,4,6.3,4,10.8l0,1
			C67.8,45.7,67.7,45.9,67.5,45.9z M60.6,40.5c0.2,0,0.4-0.2,0.3-0.4c-0.5-1.3-1.3-2.4-2.5-3.2c-1.3-0.9-2.8-1.4-4.6-1.4
			c-1.9,0-3.5,0.5-5,1.6c-0.8,0.6-1.6,1.6-2.3,3c-0.1,0.2,0.1,0.5,0.3,0.5L60.6,40.5z"/>
		<path class="st0" d="M71.3,20h6.1c0.2,0,0.3,0.1,0.3,0.3V57c0,0.2-0.1,0.3-0.3,0.3h-6.1c-0.2,0-0.3-0.1-0.3-0.3V20.4
			C71,20.2,71.1,20,71.3,20z"/>
		<path class="st0" d="M94.8,29.7c2.5,0,4.9,0.6,7.2,1.9c2.2,1.3,4,3,5.2,5.2s1.9,4.5,1.9,7.1c0,2.5-0.6,4.9-1.9,7.1
			c-1.3,2.2-3,3.9-5.2,5.2c-2.2,1.2-4.6,1.9-7.2,1.9c-3.9,0-7.2-1.4-9.9-4.1s-4.1-6.1-4.1-10c0-4.2,1.5-7.7,4.6-10.5
			C88.2,31,91.3,29.7,94.8,29.7z M94.9,36.1c-2.1,0-3.8,0.7-5.2,2.2c-1.4,1.5-2.1,3.3-2.1,5.6c0,2.3,0.7,4.2,2.1,5.7
			c1.4,1.5,3.1,2.2,5.2,2.2c2.1,0,3.9-0.7,5.3-2.2c1.4-1.5,2.1-3.4,2.1-5.7s-0.7-4.2-2.1-5.6C98.9,36.8,97.1,36.1,94.9,36.1z"/>
		<path class="st0" d="M135.7,36.8c-1.3-0.3-2.6-0.7-3.9-1c-0.7-0.2-1.5-0.4-2.2-0.7c-0.2-0.1-0.4,0.1-0.4,0.3v8.3
			c0,2.5-0.1,4.2-0.4,5c-0.4,1-1,1.8-1.7,2.4c-0.8,0.5-1.7,0.8-2.9,0.8s-2.1-0.3-2.8-0.8c-0.8-0.5-1.3-1.3-1.7-2.3
			c-0.3-1-0.5-2.7-0.5-5.3c0-0.8,0-1.6,0-2.4c0-1.5,0-2.9,0-4.4c0-0.7,0-1.4,0-2.1c0-0.1,0-0.3,0-0.4c-0.2-0.8-0.6-1.6-1.3-2.1
			c-0.6-0.5-1.4-0.9-2.1-1.2c-1-0.3-2-0.5-3.1-0.5c-0.2,0-0.3,0.1-0.3,0.3v10.9c0,4.3,0.3,7.3,0.8,8.9c0.7,2.4,2,4.2,3.8,5.5
			c1.8,1.3,4.2,2,7.2,2c2.7,0,5-0.6,6.7-1.7c1.8-1.1,3.1-2.8,4-4.9c0.7-1.7,1.1-5,1.1-9.7v-4.8C135.9,36.9,135.8,36.8,135.7,36.8z"
			/>
	</g>
	<g>
		<g>
			<circle class="st1" cx="153.8" cy="50.9" r="8.6"/>
		</g>
		<g>
			<path class="st2" d="M164.5,2.8c-1.4-1-3.1-1.7-4.8-2.1c-0.9-0.2-1.8-0.3-2.8-0.4C154-0.1,151.1,0,148.2,0
				c-6.2,0.1-12.4,0.3-18.5,0.4c-2.4,0-4.9,0-7.3-0.1c-0.4,0-0.7,0-1.1,0c-0.4,0-0.7,0-1.1,0c-0.4,0-0.7,0-1.1,0
				c-0.7,0-1.4-0.1-2.1-0.1c-0.2,0-0.3,0-0.5,0c-0.2,0-0.4-0.1-0.6,0c-0.1,0.1-0.1,0.2-0.1,0.3c0,0.4,0,0.8,0,1.2c0,0.2,0,0.3,0,0.5
				c0,0.2,0,0.4,0,0.6c0,0.2,0,0.4,0,0.6c0,0.2,0,0.4,0,0.6c0,0.2,0,0.3,0,0.5c0,0.2,0,0.3,0,0.5c0,0.1,0,0.3,0,0.4
				c0,0.1,0,0.2,0,0.3c0,0,0,0.1,0,0.1c0,0,0,0,0,0c0,1.9,0.1,3.7,0.4,5.6c0.1,0.8,0.3,1.6,0.5,2.4c0.1,0.4,0.2,0.8,0.4,1.2
				c0.1,0.3,0.4,0.8,0.4,1.2c1.2,2.9,3,5.5,5.4,7.5c0,0,0.1,0.1,0.1,0.1c3.6,3.1,8.2,4.8,12.7,6.1c5.8,1.6,11.6,3,17.2,5
				c4.8,1.7,11.8,4,14.1,9c0.2,0.3,0.3,0.7,0.4,1.1c0,0,0-4.2,0-4.2c0-8.5,0.2-17.1,0.5-25.6c0.1-2.9,0.3-6-0.7-8.7
				C166.6,4.8,165.7,3.7,164.5,2.8z"/>
		</g>
	</g>
</g>
</svg>
