<?xml version="1.0" encoding="utf-8"?>
<!-- Generator: Adobe Illustrator 23.0.3, SVG Export Plug-In . SVG Version: 6.00 Build 0)  -->
<svg version="1.1" id="Layer_1" xmlns="http://www.w3.org/2000/svg" xmlns:xlink="http://www.w3.org/1999/xlink" x="0px" y="0px"
	 viewBox="0 0 100 100" style="enable-background:new 0 0 100 100;" xml:space="preserve">
<style type="text/css">
	.st0{fill:#47EADE;}
</style>
<g id="XMLID_761_">
	<g id="XMLID_1219_">
		<path id="XMLID_1469_" class="st0" d="M54.7,29.3c0-5.2-4.3-9.5-9.5-9.5s-9.5,4.3-9.5,9.5s4.3,9.5,9.5,9.5S54.7,34.6,54.7,29.3z
			 M39.3,29.3c0-3.3,2.7-6,6-6s6,2.7,6,6s-2.7,6-6,6S39.3,32.6,39.3,29.3z"/>
		<path id="XMLID_1605_" class="st0" d="M29.9,52.1c2.3-1.2,3.9-3.1,4.7-5.5c0.8-2.4,0.6-5-0.6-7.2c-1.2-2.3-3.1-3.9-5.5-4.7
			c-2.4-0.8-5-0.6-7.2,0.6c-2.3,1.2-3.9,3.1-4.7,5.5c-0.8,2.4-0.6,5,0.6,7.2c1.2,2.3,3.1,3.9,5.5,4.7c1,0.3,2,0.5,2.9,0.5
			C27.1,53.1,28.6,52.8,29.9,52.1L29.9,52.1z M23.8,49.3c-1.5-0.5-2.8-1.5-3.5-3s-0.9-3-0.4-4.6c0.5-1.5,1.5-2.8,3-3.5
			c0.9-0.4,1.8-0.7,2.7-0.7c0.6,0,1.2,0.1,1.9,0.3c1.5,0.5,2.8,1.5,3.5,3c0.7,1.4,0.9,3,0.4,4.6c-0.5,1.5-1.5,2.8-3,3.5
			C26.9,49.7,25.3,49.8,23.8,49.3z"/>
		<path id="XMLID_1609_" class="st0" d="M27.5,74.4c1.7,1.2,3.6,1.8,5.6,1.8c2.9,0,5.8-1.4,7.7-3.9c1.5-2.1,2.1-4.6,1.7-7.1
			c-0.4-2.5-1.7-4.7-3.8-6.2s-4.6-2.1-7.1-1.7c-2.5,0.4-4.7,1.7-6.2,3.8C22.4,65.4,23.3,71.3,27.5,74.4L27.5,74.4z M28.3,63.2
			c0.9-1.3,2.3-2.1,3.9-2.4c0.3-0.1,0.6-0.1,0.9-0.1c1.3,0,2.5,0.4,3.5,1.1c2.7,1.9,3.3,5.7,1.3,8.3c-1.9,2.7-5.7,3.3-8.3,1.3
			S26.3,65.9,28.3,63.2z"/>
		<path id="XMLID_1659_" class="st0" d="M57.4,76.2c1.9,0,3.9-0.6,5.6-1.8c4.2-3.1,5.2-9,2.1-13.3c-1.5-2.1-3.7-3.4-6.2-3.8
			c-2.5-0.4-5,0.2-7.1,1.7s-3.4,3.7-3.8,6.2c-0.4,2.5,0.2,5,1.7,7.1C51.6,74.8,54.5,76.2,57.4,76.2L57.4,76.2z M53.9,61.9
			c1.3-0.9,2.9-1.3,4.4-1.1c1.6,0.2,3,1.1,3.9,2.4c1.9,2.7,1.3,6.4-1.3,8.3s-6.4,1.3-8.3-1.3S51.2,63.8,53.9,61.9z"/>
		<path id="XMLID_1678_" class="st0" d="M62,34.6c-2.4,0.8-4.4,2.5-5.5,4.7c-1.2,2.3-1.4,4.8-0.6,7.2c0.8,2.4,2.5,4.4,4.7,5.5
			c1.4,0.7,2.8,1,4.3,1c1,0,2-0.2,2.9-0.5c2.4-0.8,4.4-2.5,5.5-4.7c1.2-2.3,1.4-4.8,0.6-7.2c-0.8-2.4-2.5-4.4-4.7-5.5
			C66.9,34,64.4,33.8,62,34.6z M67.6,38.3c1.4,0.7,2.5,2,3,3.5c0.5,1.5,0.4,3.1-0.4,4.6c-0.7,1.4-2,2.5-3.5,3
			c-1.5,0.5-3.1,0.4-4.6-0.4c-1.4-0.7-2.5-2-3-3.5c-0.5-1.5-0.4-3.1,0.4-4.6c0.7-1.4,2-2.5,3.5-3c0.6-0.2,1.2-0.3,1.9-0.3
			C65.8,37.6,66.8,37.9,67.6,38.3z"/>
		<path id="XMLID_1713_" class="st0" d="M51.3,50c0-3.3-2.7-6-6-6s-6,2.7-6,6s2.7,6,6,6S51.3,53.3,51.3,50z M42.7,50
			c0-1.4,1.1-2.5,2.5-2.5s2.5,1.1,2.5,2.5c0,1.4-1.1,2.5-2.5,2.5C43.9,52.5,42.7,51.4,42.7,50L42.7,50z"/>
		<path id="XMLID_1768_" class="st0" d="M94.5,82.7c-2-2-4.6-3.1-7.4-3.1c-2.8,0-5.5,1.1-7.4,3.1c-2.6,2.6-6.1,4.1-9.9,4.1h-8
			c4.4-2,8.4-4.8,12-8.3c7.6-7.6,11.8-17.7,11.8-28.5c0-7.9-2.3-15.5-6.6-22c-0.5-0.8-1.6-1-2.4-0.5c-0.8,0.5-1,1.6-0.5,2.4
			c3.9,6,6,12.9,6,20.1c0,20.3-16.5,36.7-36.7,36.7S8.5,70.3,8.5,50S25,13.3,45.3,13.3c7.2,0,14.2,2.1,20.1,6
			c0.8,0.5,1.9,0.3,2.4-0.5c0.5-0.8,0.3-1.9-0.5-2.4C60.8,12,53.1,9.7,45.3,9.7c-10.8,0-20.9,4.2-28.5,11.8S5,39.2,5,50
			s4.2,20.9,11.8,28.5c7.6,7.6,17.7,11.8,28.5,11.8h24.5c4.7,0,9.1-1.8,12.4-5.1c1.3-1.3,3.1-2.1,5-2.1c1.9,0,3.6,0.7,5,2.1
			c0.7,0.7,1.8,0.7,2.5,0C95.2,84.5,95.2,83.3,94.5,82.7L94.5,82.7z"/>
		<path id="XMLID_1769_" class="st0" d="M72.5,24.5c0.5,0,0.9-0.2,1.2-0.5c0.3-0.3,0.5-0.8,0.5-1.2c0-0.5-0.2-0.9-0.5-1.2
			C73.4,21.2,73,21,72.5,21c-0.5,0-0.9,0.2-1.2,0.5c-0.3,0.3-0.5,0.8-0.5,1.2c0,0.5,0.2,0.9,0.5,1.2S72,24.5,72.5,24.5z"/>
	</g>
</g>
</svg>
