<?xml version="1.0" encoding="utf-8"?>
<!-- Generator: Adobe Illustrator 23.0.3, SVG Export Plug-In . SVG Version: 6.00 Build 0)  -->
<svg version="1.1" id="Layer_1" xmlns="http://www.w3.org/2000/svg" xmlns:xlink="http://www.w3.org/1999/xlink" x="0px" y="0px"
	 viewBox="0 0 100 100" style="enable-background:new 0 0 100 100;" xml:space="preserve">
<style type="text/css">
	.st0{fill:#E03486;}
</style>
<path class="st0" d="M92.8,64.9L92.8,64.9l-0.1-0.3c1.3-4.3,2-8.4,2-12.4c0-11.6-4.7-22.6-13.3-30.9C72.9,13.1,61.7,8.5,50,8.5
	c-24.2,0-44.7,20-44.7,43.7c0,4,0.6,8.1,2,12.4v0.2l-0.1,0.1c-1.6,1.2-2.3,3.3-1.7,5.2l4.5,17c0.3,1.3,1.2,2.4,2.3,3
	c1.2,0.7,2.5,0.9,3.8,0.5l5.6-1.5l0.1,0.1c1.2,1.7,3.4,2.6,5.4,2l6.8-1.8c1.3-0.3,2.4-1.2,3-2.3c0.7-1.2,0.9-2.5,0.5-3.8l-6.4-23.7
	c-0.3-1.3-1.2-2.4-2.3-3c-1.2-0.7-2.5-0.8-3.8-0.5l-6.8,1.8c-0.7,0.2-1.3,0.5-1.8,0.9L16.1,59L16,58.6c-0.4-1.6-0.6-3.3-0.7-4.9
	v-0.2l0.2-0.1c1.9-0.6,3.2-2.3,3.4-4.2c1.5-15,15.4-27.2,31-27.2s29.6,12.2,31,27.2c0.2,2,1.5,3.6,3.4,4.2l0.2,0.1v0.2
	c-0.1,1.6-0.3,3.3-0.7,4.9l0.1,0.4l-0.3-0.2c-0.5-0.4-1.1-0.7-1.8-0.9L75,56c-0.4-0.1-0.9-0.2-1.3-0.2c-2.2,0-4.2,1.5-4.8,3.7
	l-6.4,23.7c-0.7,2.7,0.9,5.4,3.5,6.1l6.8,1.8c2,0.5,4.2-0.3,5.4-2l0.1-0.1l5.6,1.5c1.3,0.3,2.7,0.2,3.8-0.5c1.2-0.7,2-1.8,2.3-3
	l4.5-17C95.1,68.2,94.4,66.1,92.8,64.9z M17.8,61.7c0.3-0.5,0.7-0.8,1.2-0.9l6.8-1.8c1.1-0.3,2.2,0.3,2.5,1.4l6.4,23.8
	c0.3,1.1-0.3,2.2-1.4,2.5l-1.9,0.5L28,75c-0.2-0.8-1-1.3-1.8-1.1c-0.8,0.2-1.3,1-1.1,1.8l3.2,12.1l-1.9,0.5c-0.2,0-0.3,0.1-0.5,0.1
	c-0.9,0-1.7-0.6-1.9-1.5l-6.4-23.7C17.5,62.7,17.5,62.2,17.8,61.7z M15.9,68.4c0.6,2.3,1.9,7.1,4.7,17.7l0.1,0.2l-5.3,1.4
	c-0.2,0-0.3,0.1-0.5,0.1c-0.9,0-1.7-0.6-1.9-1.5l-4.5-17c-0.3-1,0.3-2.1,1.3-2.4h0.1l5.2-1.4l0.2,0.5C15.3,66.3,15.3,66.3,15.9,68.4
	z M8.3,53.7h4v0.2c0.2,2.8,0.7,5.6,1.5,8.4l0.1,0.2l-3.9,1v-0.1c-1-3.3-1.5-6.4-1.7-9.5V53.7z M84,49c-1.6-16.8-16.6-29.9-34-29.9
	S17.6,32.2,16,49c-0.1,1-1,1.7-2,1.7H8.3v-0.3C9.3,29,28,11.5,50,11.5s40.7,17.4,41.7,38.9v0.3H86C85,50.7,84.1,49.9,84,49z
	 M91.7,53.7V54c-0.2,3.1-0.7,6.2-1.7,9.5l-0.1,0.2l-3.9-1l0.1-0.2c0.9-2.8,1.4-5.7,1.5-8.4v-0.2h4.1V53.7z M76,87
	c-0.2,0.9-1.1,1.5-1.9,1.5c-0.2,0-0.3,0-0.5-0.1l-1.9-0.5l0.1-0.2L75,75.8c0.2-0.8-0.3-1.6-1.1-1.8c-0.9-0.3-1.7,0.2-1.9,1
	l-3.2,12.1l-1.9-0.5c-1.1-0.3-1.7-1.4-1.4-2.5l6.4-23.7c0.3-1,1.4-1.7,2.5-1.4l6.8,1.8c0.5,0.1,1,0.5,1.2,0.9c0.3,0.5,0.3,1,0.2,1.5
	L76,87z M91.7,69.3l-4.5,17c-0.1,0.5-0.5,1-0.9,1.2c-0.3,0.2-0.7,0.3-1,0.3c-0.2,0-0.3,0-0.5-0.1l-5.3-1.4l0.1-0.2
	c2.9-10.6,4.1-15.4,4.7-17.7c0.5-2.1,0.5-2.1,0.7-2.4l0.2-0.5l4,1.1c1.3,0.3,1.3,0.3,1.3,0.4C91.4,67.3,91.9,68.3,91.7,69.3z"/>
</svg>
