<?xml version="1.0" encoding="utf-8"?>
<!-- Generator: Adobe Illustrator 23.0.3, SVG Export Plug-In . SVG Version: 6.00 Build 0)  -->
<svg version="1.1" id="Layer_1" xmlns="http://www.w3.org/2000/svg" xmlns:xlink="http://www.w3.org/1999/xlink" x="0px" y="0px"
	 viewBox="0 0 100 85.1" style="enable-background:new 0 0 100 85.1;" xml:space="preserve">
<style type="text/css">
	.st0{fill:#FA473C;}
</style>
<g>
	<path class="st0" d="M44.8,78.8c-5.5,0-11-1.6-15.7-4.5c-4.8-3-8.6-7.3-11-12.4L7.6,39.4c-0.2-0.4-0.2-0.9,0.1-1.2
		C7.9,37.9,12,31,27.3,23.9c5.5-2.6,10.7-4.3,15.3-5.3l1-0.2v-6.2c0-0.4,0.2-0.8,0.6-1c0.3-0.2,7-4.7,23.8-4.7S91.9,11,92,11.1
		c0.3,0.2,0.5,0.6,0.5,1v24.7c0,14.2-10.1,26.4-24.2,29c-0.1,0-0.2,0-0.3,0h-0.1l0,0h-0.1c-1.3-0.3-2.5-0.5-3.7-1L63,64.5l-0.4,1
		c-2.1,4.8-5.5,8.9-9.8,12c-0.1,0.1-0.2,0.1-0.3,0.2l0,0l-0.2,0.1C49.8,78.4,47.3,78.8,44.8,78.8z M49,20.4c-3.1,0-10,0.8-20.5,5.7
		s-15.5,9.8-17.6,12.2L10.3,39l10.2,21.8c4.3,9.4,14,15.4,24.3,15.4c2.1,0,4.2-0.3,6.3-0.8l0.3-0.1l0.2-0.2
		c10.2-7.6,13.7-21.5,8.3-33L49.7,20.4H49z M68.1,44.8c-1,0-2,0.2-2.9,0.4L64,45.5l0.3,1.2c1.1,4.7,1,9.6-0.1,14.3l-0.3,1l1.1,0.3
		c1,0.3,1.9,0.5,2.9,0.7l0.3,0.1l0.3-0.1c12.4-2.4,21.5-13.5,21.5-26.3v-24l-0.8-0.3C86.2,11.2,79.7,9,68,9S49.8,11.1,47,12.5
		l-0.8,0.3V18l1.4-0.1c0.5,0,1,0,1.4,0c1.1,0,1.7,0.1,1.7,0.1c0.4,0.1,0.8,0.3,1,0.7l3.5,7.4l0.6,0.2c0.2,0.1,0.4,0.2,0.5,0.3
		c0.8,0.8,1.7,1.2,2.9,1.2c1,0,2.1-0.4,2.9-1.2c0.3-0.3,0.6-0.3,1-0.3s0.7,0.2,1,0.3c0.3,0.3,0.3,0.6,0.3,1c0,0.3-0.2,0.7-0.3,1
		c-1.2,1.2-2.9,1.9-4.6,1.9h-2l5,10.8c0.1,0.3,0.3,0.6,0.4,1l0.4,1l1.1-0.3c1.2-0.3,2.5-0.5,3.8-0.5c3.6,0,6.9,1.4,9.5,3.9
		c0.5,0.5,0.5,1.3,0,1.8c-0.3,0.3-0.6,0.3-1,0.3c-0.3,0-0.7-0.2-1-0.3C73.7,45.9,71,44.8,68.1,44.8z"/>
	<path class="st0" d="M78.1,30.3c-1.7,0-3.5-0.7-4.7-1.9c-0.5-0.5-0.5-1.3,0-1.8c0.3-0.3,0.6-0.3,1-0.3s0.7,0.2,1,0.3
		c0.8,0.8,1.7,1.2,2.9,1.2c1,0,2.1-0.4,2.9-1.2c0.3-0.3,0.6-0.3,1-0.3s0.7,0.2,1,0.3c0.5,0.5,0.5,1.3,0,1.8
		C81.5,29.6,79.8,30.3,78.1,30.3z"/>
	<path class="st0" d="M25.5,51.2c-0.2,0-0.3,0-0.4-0.1c-0.3-0.1-0.6-0.3-0.7-0.7c-0.2-0.3-0.2-0.7-0.1-1c0.6-1.6,1.8-3,3.4-3.7
		c0.9-0.4,1.8-0.6,2.8-0.6c0.8,0,1.6,0.2,2.3,0.4c0.3,0.1,0.6,0.3,0.7,0.7c0.2,0.3,0.2,0.7,0.1,1c-0.2,0.5-0.7,0.9-1.2,0.9l0,0
		c-0.2,0-0.3,0-0.4-0.1c-0.4-0.2-0.9-0.3-1.4-0.3c-0.6,0-1.1,0.2-1.7,0.3c-1,0.4-1.7,1.3-2.1,2.3C26.6,50.8,26.1,51.2,25.5,51.2z"/>
	<path class="st0" d="M42.6,43.2c-0.2,0-0.3,0-0.4-0.1c-0.7-0.3-1-1-0.8-1.6c1-2.6,3.5-4.3,6.2-4.3c0.8,0,1.6,0.2,2.3,0.4
		s1,1,0.8,1.6c-0.2,0.5-0.7,0.9-1.2,0.9c-0.2,0-0.3,0-0.4-0.1c-0.4-0.2-0.9-0.3-1.4-0.3c-0.6,0-1.1,0.2-1.7,0.3
		c-1,0.4-1.7,1.3-2.1,2.3C43.7,42.9,43.1,43.2,42.6,43.2z"/>
	<path class="st0" d="M39.2,62.9c-1.6,0-3.1-0.3-4.5-0.8c-0.7-0.3-1-1-0.8-1.6c0.2-0.5,0.7-0.9,1.2-0.9c0.2,0,0.3,0,0.4,0.1
		c1.2,0.4,2.4,0.7,3.6,0.7c4.5,0,8.7-2.9,10.1-7.1c0.2-0.5,0.7-0.9,1.2-0.9c0.2,0,0.3,0,0.4,0.1c0.7,0.3,1,1,0.8,1.6
		C50,59.3,45,62.9,39.2,62.9z"/>
</g>
</svg>
