<?xml version="1.0" encoding="utf-8"?>
<!-- Generator: Adobe Illustrator 23.0.3, SVG Export Plug-In . SVG Version: 6.00 Build 0)  -->
<svg version="1.1" id="Capa_1" xmlns="http://www.w3.org/2000/svg" xmlns:xlink="http://www.w3.org/1999/xlink" x="0px" y="0px"
	 viewBox="0 0 90 90" style="enable-background:new 0 0 90 90;" xml:space="preserve">
<style type="text/css">
	.st0{fill:#FFFFFF;}
</style>
<g>
	<g>
		<g>
			<path class="st0" d="M86.8,12.4c-1.9-0.2-3.6,1.2-3.8,3.2l-0.5,5.1C74.6,8.3,60.9,0,45,0C27.9,0,12.8,9.8,5.3,24.4
				c-0.9,1.7-0.2,3.8,1.5,4.7c1.7,0.9,3.8,0.2,4.7-1.5C17.9,15.2,30.7,7,45,7c13.1,0,24.9,6.8,31.6,17.5l-5-3.6
				c-1.6-1.1-3.8-0.8-4.9,0.8c-1.1,1.6-0.8,3.8,0.8,4.9l15.2,10.9c2.2,1.6,5.3,0.1,5.5-2.5L90,16.2C90.2,14.3,88.7,12.6,86.8,12.4z"
				/>
		</g>
	</g>
	<g>
		<g>
			<path class="st0" d="M83.1,60.9c-1.7-0.9-3.8-0.2-4.7,1.5C72.1,74.8,59.3,83,45,83c-13.1,0-24.9-6.8-31.6-17.5l5,3.6
				c1.6,1.1,3.8,0.8,4.9-0.8c1.1-1.6,0.8-3.8-0.8-4.9L7.3,52.5C5.1,50.9,2,52.3,1.7,55L0,73.8c-0.2,1.9,1.2,3.6,3.2,3.8
				c1.9,0.2,3.6-1.3,3.8-3.2l0.5-5.1C15.4,81.7,29.1,90,45,90c17.1,0,32.2-9.8,39.7-24.4C85.5,63.9,84.8,61.7,83.1,60.9z"/>
		</g>
	</g>
</g>
</svg>
