<?xml version="1.0" encoding="utf-8"?>
<!-- Generator: Adobe Illustrator 23.0.3, SVG Export Plug-In . SVG Version: 6.00 Build 0)  -->
<svg version="1.1" id="Layer_1" xmlns="http://www.w3.org/2000/svg" xmlns:xlink="http://www.w3.org/1999/xlink" x="0px" y="0px"
	 viewBox="0 0 100 100" style="enable-background:new 0 0 100 100;" xml:space="preserve">
<style type="text/css">
	.st0{fill:#FD8930;}
</style>
<path class="st0" d="M42.4,78.3c-1.1-1.1-3-1.1-4.1,0l-7.6,7.6c-1.1,1.1-1.1,3,0,4.1s3,1.1,4.1,0l7.6-7.6
	C43.5,81.2,43.5,79.4,42.4,78.3L42.4,78.3z M21.7,57.6c-1.1-1.1-3-1.1-4.1,0L10,65.2c-1.1,1.1-1.1,3,0,4.1s3,1.1,4.1,0l7.6-7.6
	C22.9,60.6,22.9,58.8,21.7,57.6L21.7,57.6z M35.5,64.5c-1.1-1.1-3-1.1-4.1,0L12.1,83.8c-1.1,1.1-1.1,3,0,4.1s3,1.1,4.1,0l19.3-19.3
	C36.6,67.5,36.6,65.7,35.5,64.5z M94.9,8.8L67.3,93c-0.8,2.4-4,2.7-5.3,0.6L43.6,61.7c-0.6-1-0.5-2.3,0.2-3.2l6.6-8.9l-8.9,6.6
	c-0.9,0.7-2.2,0.8-3.2,0.2L6.4,37.9c-2.2-1.3-1.8-4.5,0.6-5.3L91.2,5.1C93.4,4.4,95.6,6.5,94.9,8.8L94.9,8.8z"/>
</svg>
