<?xml version="1.0" encoding="utf-8"?>
<!-- Generator: Adobe Illustrator 23.0.3, SVG Export Plug-In . SVG Version: 6.00 Build 0)  -->
<svg version="1.1" id="Capa_1" xmlns="http://www.w3.org/2000/svg" xmlns:xlink="http://www.w3.org/1999/xlink" x="0px" y="0px"
	 viewBox="0 0 111.1 100" style="enable-background:new 0 0 111.1 100;" xml:space="preserve">
<style type="text/css">
	.st0{fill:#EAEAEA;}
</style>
<g>
	<path class="st0" d="M83.8,90.6c-0.9,0-1.7-0.3-2.4-1c-1.3-1.3-1.3-3.4,0-4.7l7.2-7.1l-4.2-0.5c-3.3-0.4-6.6-1.2-9.9-2.4
		c-4.8-1.8-9.3-4.4-13.3-7.7c-2.9-2.4-5.7-5.3-8.1-8.5l-1.6-2.2L50,58.7c-2.4,3.2-5.1,6.1-8.1,8.5c-4,3.3-8.5,5.9-13.3,7.7
		c-6.7,2.5-12.1,2.7-14.1,2.7c-0.5,0-0.8,0-0.9,0c-1.7-0.1-3.1-1.5-3.1-3.3c0-0.1,0-0.1,0-0.2c0.1-1.8,1.5-3.1,3.3-3.1
		c0.1,0,0.1,0,0.2,0c0.1,0,0.2,0,0.5,0c1.3,0,6-0.2,11.8-2.3c4.1-1.5,8-3.7,11.4-6.6c3.6-3,6.8-6.6,9.4-10.9l0.7-1.1L47.2,49
		c-2.7-4.3-5.9-8-9.4-10.9c-3.4-2.8-7.3-5-11.4-6.6c-5.8-2.2-10.5-2.3-11.8-2.3c-0.3,0-0.4,0-0.5,0c-0.1,0-0.1,0-0.2,0
		c-1.8,0-3.2-1.4-3.3-3.1c0-0.1,0-0.1,0-0.2c0-1.8,1.4-3.2,3.1-3.3c0.1,0,0.4,0,0.9,0c2,0,7.5,0.3,14.1,2.7C33.5,27.1,38,29.7,42,33
		c2.9,2.4,5.7,5.3,8.1,8.5l1.6,2.2l1.6-2.2c2.4-3.2,5.1-6.1,8.1-8.5c4-3.3,8.5-5.9,13.3-7.7c3.2-1.2,6.6-2,9.9-2.4l4.2-0.5l-7.2-7.1
		c-0.6-0.6-1-1.4-1-2.3c0-0.9,0.3-1.7,1-2.3c0.6-0.6,1.5-1,2.4-1c0.9,0,1.7,0.3,2.3,1l13.4,13.2c0.6,0.6,1,1.4,1,2.3
		c0,0.9-0.3,1.7-1,2.3L86.2,42c-0.6,0.6-1.5,1-2.4,1c-0.9,0-1.7-0.3-2.3-1c-0.6-0.6-1-1.5-1-2.4c0-0.9,0.3-1.7,1-2.3l8.7-8.8
		l-6.2,1.1c-2.5,0.4-5,1.1-7.3,2c-4,1.6-7.8,3.8-11.2,6.6c-3.5,2.9-6.6,6.5-9.2,10.7l-0.7,1.1l0.7,1.1c2.6,4.2,5.7,7.8,9.2,10.7
		c3.4,2.8,7.1,5,11.2,6.6c2.4,0.9,4.9,1.6,7.3,2l6.2,1.1l-8.7-8.8c-0.6-0.6-1-1.4-1-2.3c0-0.9,0.3-1.7,1-2.4c0.6-0.6,1.4-1,2.3-1
		c0.9,0,1.7,0.3,2.4,1l13.4,13.6c0.6,0.6,1,1.5,1,2.3c0,0.9-0.4,1.7-1,2.3L86.2,89.6C85.5,90.2,84.7,90.6,83.8,90.6z"/>
</g>
</svg>
