<?xml version="1.0" encoding="utf-8"?>
<!-- Generator: Adobe Illustrator 23.0.3, SVG Export Plug-In . SVG Version: 6.00 Build 0)  -->
<svg version="1.1" id="Capa_1" xmlns="http://www.w3.org/2000/svg" xmlns:xlink="http://www.w3.org/1999/xlink" x="0px" y="0px"
	 viewBox="0 0 883.1 795" style="enable-background:new 0 0 883.1 795;" xml:space="preserve">
<style type="text/css">
	.st0{fill:#FABF3C;}
</style>
<g>
	<path class="st0" d="M164,0.1c8.8,0,17,3.4,23.1,9.7c12.6,12.7,12.5,33.4-0.3,46l-70.6,69.8l40.8,5.2c32.3,4.1,64.9,12.1,96.7,23.9
		c47.3,17.5,91.3,42.8,130.5,75.2c28.9,23.8,55.6,51.8,79.3,83.2l16,21.2l16-21.2c23.7-31.4,50.3-59.4,79.3-83.2
		c39.3-32.4,83.2-57.7,130.5-75.2c65.3-24.1,118.6-26.7,138.4-26.7c4.8,0,7.7,0.1,8.8,0.2c17.1,0.8,30.6,15,30.6,32.2
		c0,0.6,0,1.3-0.1,1.9c-1,17.2-15.2,30.6-32.4,30.6c-0.6,0-1.3,0-1.9-0.1c-0.5,0-2.2-0.1-4.7-0.1c-12.9,0-59.3,1.6-116.2,22.7
		c-40.5,15-78.1,36.6-111.7,64.4c-35.1,29-66.3,65-92.6,107.1l-6.6,10.6l6.6,10.6c26.3,42.1,57.5,78.1,92.6,107.1
		c33.7,27.8,71.3,49.4,111.7,64.4c57,21.1,103.4,22.7,116.2,22.7c2.5,0,4.1-0.1,4.7-0.1c0.6,0,1.3-0.1,1.9-0.1
		c17.2,0,31.4,13.4,32.4,30.6c0,0.6,0.1,1.3,0.1,1.9c0,17.2-13.5,31.4-30.6,32.4c-1.1,0.1-4.1,0.2-8.8,0.2
		c-19.9,0-73.2-2.6-138.4-26.7C658,623,614,597.7,574.8,565.3c-28.9-23.8-55.6-51.9-79.3-83.2l-16-21.2l-16,21.2
		c-23.7,31.4-50.3,59.4-79.3,83.2c-39.3,32.4-83.2,57.7-130.5,75.2c-31.8,11.8-64.4,19.8-96.7,23.9l-40.8,5.2l70.6,69.8
		c6.2,6.1,9.6,14.2,9.7,22.9c0.1,8.7-3.3,16.9-9.4,23c-6.2,6.2-14.4,9.7-23.1,9.7c-8.6,0-16.7-3.3-22.8-9.4L9.7,655.7
		c-6.2-6.1-9.6-14.2-9.7-22.9c-0.1-8.6,3.4-17,9.4-23l131.7-133.2c6.2-6.2,14.4-9.7,23.1-9.7c8.6,0,16.7,3.3,22.8,9.4
		c6.2,6.2,9.7,14.4,9.7,23.1c0,8.6-3.3,16.7-9.4,22.8l-84.9,85.9l61.2-10.4c24.4-4.1,48.7-10.8,72.1-19.8
		c39.7-15.3,76.6-37,109.7-64.7c34.1-28.6,64.5-64,90.2-105.1l6.6-10.6l-6.6-10.6c-25.7-41.1-56.1-76.5-90.2-105.1
		c-33-27.7-69.9-49.5-109.7-64.7c-23.4-9-47.7-15.7-72.1-19.8l-61.2-10.4l84.9,85.9c6,6.1,9.4,14.2,9.4,22.8c0,8.8-3.4,17-9.7,23.1
		c-6.1,6.1-14.2,9.4-22.8,9.4c-8.8,0-17-3.4-23.1-9.7L9.4,185.1c-6-6.1-9.4-14.5-9.4-23c0.1-8.7,3.5-16.8,9.7-22.9L141.1,9.4
		C147.2,3.4,155.4,0.1,164,0.1z"/>
</g>
</svg>
