<?xml version="1.0" encoding="utf-8"?>
<!-- Generator: Adobe Illustrator 23.0.3, SVG Export Plug-In . SVG Version: 6.00 Build 0)  -->
<svg version="1.1" id="Layer_1" xmlns="http://www.w3.org/2000/svg" xmlns:xlink="http://www.w3.org/1999/xlink" x="0px" y="0px"
	 viewBox="0 0 100 78.5" style="enable-background:new 0 0 100 78.5;" xml:space="preserve">
<style type="text/css">
	.st0{fill:#DCDCDC;}
</style>
<g>
	<g>
		<path class="st0" d="M94.4,11.9H78.6C77.3,7.3,73.1,4,68.1,4s-9.2,3.4-10.5,7.9h-52c-0.3,0-0.6,0.3-0.6,0.6v4.7
			c0,0.3,0.3,0.6,0.6,0.6h52c1.3,4.6,5.5,7.9,10.5,7.9s9.2-3.4,10.5-7.9h15.9c0.3,0,0.6-0.3,0.6-0.6v-4.7
			C95,12.1,94.7,11.9,94.4,11.9z M68.1,19.8c-1.7,0-3.2-0.8-4.1-2.1c-0.6-0.8-0.9-1.8-0.9-2.9s0.4-2.1,0.9-2.9
			c0.9-1.3,2.4-2.1,4.1-2.1s3.2,0.8,4.1,2.1c0.6,0.8,0.9,1.8,0.9,2.9s-0.4,2.1-0.9,2.9C71.3,19,69.8,19.8,68.1,19.8z"/>
	</g>
	<path class="st0" d="M94.4,36.3H34.2c-1.3-4.6-5.5-7.9-10.5-7.9s-9.2,3.4-10.5,7.9H5.6c-0.3,0-0.6,0.3-0.6,0.6v4.7
		c0,0.3,0.3,0.6,0.6,0.6h7.7c1.3,4.6,5.5,7.9,10.5,7.9s9.2-3.4,10.5-7.9h60.2c0.3,0,0.6-0.3,0.6-0.6v-4.7
		C95,36.6,94.7,36.3,94.4,36.3z M23.7,44.3c-1.7,0-3.2-0.8-4.1-2.1c-0.6-0.8-0.9-1.8-0.9-2.9c0-1.1,0.4-2.1,0.9-2.9
		c0.9-1.3,2.4-2.1,4.1-2.1s3.2,0.8,4.1,2.1c0.6,0.8,0.9,1.8,0.9,2.9c0,1.1-0.4,2.1-0.9,2.9C26.9,43.5,25.4,44.3,23.7,44.3z"/>
	<path class="st0" d="M94.4,60.8H61.1c-1.3-4.6-5.5-7.9-10.5-7.9s-9.2,3.4-10.5,7.9H5.6C5.3,60.8,5,61,5,61.4V66
		c0,0.3,0.3,0.6,0.6,0.6h34.6c1.3,4.6,5.5,7.9,10.5,7.9s9.2-3.4,10.5-7.9h33.3c0.3,0,0.6-0.3,0.6-0.6v-4.7
		C95,61,94.7,60.8,94.4,60.8z M50.7,68.7c-1.7,0-3.2-0.8-4.1-2.1c-0.6-0.8-0.9-1.8-0.9-2.9s0.4-2.1,0.9-2.9c0.9-1.3,2.4-2.1,4.1-2.1
		c1.7,0,3.2,0.8,4.1,2.1c0.6,0.8,0.9,1.8,0.9,2.9c0,1.1-0.4,2.1-0.9,2.9C53.8,67.9,52.4,68.7,50.7,68.7z"/>
</g>
</svg>
