<?xml version="1.0" encoding="utf-8"?>
<!-- Generator: Adobe Illustrator 23.0.3, SVG Export Plug-In . SVG Version: 6.00 Build 0)  -->
<svg version="1.1" id="Layer_1" xmlns="http://www.w3.org/2000/svg" xmlns:xlink="http://www.w3.org/1999/xlink" x="0px" y="0px"
	 viewBox="0 0 100 100" style="enable-background:new 0 0 100 100;" xml:space="preserve">
<style type="text/css">
	.st0{fill:#FCE010;}
</style>
<g id="surface1">
	<path class="st0" d="M25.3,95c-0.7,0-1.4-0.6-1.4-1.4c0-0.7,0.6-1.4,1.4-1.4h1.6v-5.9c0-4.8,3.9-8.6,8.6-8.6h5.9V63.6l-0.7-0.4
		c-1.9-1.2-3.8-2.8-5.6-4.7l-0.4-0.4l-0.5,0c-7.8-0.5-15-5.2-20.5-13.4C8.1,36.2,5,25,5,13.1c0-0.8,0.6-1.4,1.4-1.4h13.3l-0.1-1.4
		c0-1.3-0.1-2.7-0.1-3.9c0-0.7,0.6-1.4,1.4-1.4h58.2c0.7,0,1.4,0.6,1.4,1.4c0,1.3,0,2.6-0.1,3.9l0,1.4h13.3c0.7,0,1.4,0.6,1.4,1.4
		c0,11.9-3.1,23.1-8.7,31.6c-5.4,8.2-12.7,12.9-20.5,13.4l-0.5,0l-0.4,0.4c-1.8,1.9-3.7,3.5-5.6,4.7l-0.7,0.4v14.2h5.9
		c4.8,0,8.6,3.9,8.6,8.6v5.9h1.6c0.7,0,1.4,0.6,1.4,1.4c0,0.7-0.6,1.4-1.4,1.4H25.3z M35.5,80.5c-3.3,0-5.9,2.7-5.9,5.9v5.9h40.9
		v-5.9c0-3.3-2.7-5.9-5.9-5.9L35.5,80.5L35.5,80.5z M44.1,77.8h11.8V64.9l-1.7,0.5C52.8,65.8,51.4,66,50,66c-1.4,0-2.8-0.2-4.2-0.6
		l-1.7-0.5L44.1,77.8L44.1,77.8z M22.3,9.2c0.3,14.3,3.3,27.7,8.3,37.8c1.7,3.4,3.6,6.3,5.6,8.7l0.1,0.1l0.1,0.1
		c0.1,0.1,0.1,0.1,0.2,0.2l0,0.1l0.1,0.1c2.1,2.4,4.3,4.2,6.5,5.4l0.1,0l0.1,0c0.1,0,0.1,0.1,0.2,0.1l0.1,0l0.1,0
		c2.1,1.1,4.3,1.6,6.5,1.6c2.2,0,4.4-0.5,6.5-1.6l0.1,0l0,0c0.1,0,0.1-0.1,0.2-0.1l0.1,0l0.1,0c2.3-1.2,4.5-3,6.5-5.4l0.1-0.1l0-0.1
		c0.1-0.1,0.1-0.1,0.2-0.2l0.1-0.1l0.1-0.1c2-2.4,3.9-5.3,5.6-8.7c5.1-10.1,8-23.5,8.3-37.8l0-1.4H22.3L22.3,9.2z M80.1,15.7
		c-1,12.3-3.8,23.5-8.3,32.5c-0.7,1.4-1.4,2.7-2.2,4l-2.1,3.4l3.7-1.4c4.8-1.8,9.2-5.6,12.8-11c4.9-7.3,7.8-17,8.2-27.3l0.1-1.4
		H80.2L80.1,15.7z M7.8,15.9c0.4,10.3,3.4,20,8.2,27.3c3.6,5.4,8,9.2,12.8,11l3.7,1.4l-2.1-3.4c-0.8-1.3-1.5-2.6-2.2-4
		c-4.5-8.9-7.3-20.1-8.3-32.5l-0.1-1.3H7.7L7.8,15.9z"/>
</g>
</svg>
