<?xml version="1.0" encoding="utf-8"?>
<!-- Generator: Adobe Illustrator 23.0.3, SVG Export Plug-In . SVG Version: 6.00 Build 0)  -->
<svg version="1.1" id="Capa_1" xmlns="http://www.w3.org/2000/svg" xmlns:xlink="http://www.w3.org/1999/xlink" x="0px" y="0px"
	 viewBox="0 0 512.7 512.7" style="enable-background:new 0 0 512.7 512.7;" xml:space="preserve">
<style type="text/css">
	.st0{fill:#FABF3C;}
</style>
<path class="st0" d="M238,512.7c0-76.8-128.5-205.3-205.3-205.3C109.5,307.4,238,178.8,238,102c0,76.8,128.5,205.3,205.3,205.3
	C366.5,307.4,238,435.9,238,512.7z"/>
<g>
	<path class="st0" d="M381.2,226.5c0-37-61.9-98.9-98.9-98.9c37,0,98.9-61.9,98.9-98.9c0,37,61.9,98.9,98.9,98.9
		C443.1,127.6,381.2,189.5,381.2,226.5z"/>
	<path class="st0" d="M93,505.4c0-19.1-31.9-50.9-50.9-50.9c19.1,0,50.9-31.9,50.9-50.9c0,19.1,31.9,50.9,50.9,50.9
		C124.9,454.4,93,486.3,93,505.4z"/>
	<path class="st0" d="M158.7,141.4c0-26.4-44.3-70.7-70.7-70.7c26.4,0,70.7-44.3,70.7-70.7c0,26.4,44.3,70.7,70.7,70.7
		C202.9,70.7,158.7,115,158.7,141.4z"/>
</g>
</svg>
