<?xml version="1.0" encoding="utf-8"?>
<!-- Generator: Adobe Illustrator 23.0.3, SVG Export Plug-In . SVG Version: 6.00 Build 0)  -->
<svg version="1.1" id="Layer_1" xmlns="http://www.w3.org/2000/svg" xmlns:xlink="http://www.w3.org/1999/xlink" x="0px" y="0px"
	 viewBox="0 0 100 100" style="enable-background:new 0 0 100 100;" xml:space="preserve">
<style type="text/css">
	.st0{fill:#282727;}
</style>
<g>
	<g>
		<path class="st0" d="M91.6,64.8c-2.1-2.1-4.7-3.3-7.6-3.4V38.9V38V35c0-4.6-3.8-8.4-8.4-8.4h-0.1v-2.4c0-2.3-1.9-4.2-4.2-4.2h-5
			c-2.3,0-4.2,1.9-4.2,4.2v2.4H47.9l1.8-1.5c0.7-0.6,1.1-1.5,1.1-2.4c0-0.9-0.4-1.8-1.1-2.4l-10.9-9.1c-0.9-0.8-2.2-0.9-3.3-0.4
			c-1.1,0.5-1.8,1.6-1.8,2.8v2.6h-11c0,0,0,0,0,0h-5.8c-6.4,0-11.7,5.2-11.8,11.5c0,3.1,1.2,6.1,3.4,8.3c2.1,2.1,4.7,3.3,7.6,3.4
			v26.4c0,4.6,3.8,8.4,8.4,8.4h27.6l-1.8,1.5c-0.7,0.6-1.1,1.5-1.1,2.4c0,0.9,0.4,1.8,1.1,2.4l10.9,9.1c0.6,0.5,1.3,0.7,2,0.7
			c0.4,0,0.9-0.1,1.3-0.3c1.1-0.5,1.8-1.6,1.8-2.8v-2.6h13h0.8h3c6.4,0,11.7-5.2,11.8-11.5C95,70,93.8,67,91.6,64.8z M86.1,65.1
			c0.7,0.7,1.1,1.7,1.1,2.8c-0.1,2.1-1.8,3.7-3.9,3.7h-1.6c1.4-1.5,2.3-3.6,2.3-5.8V64C84.8,64.2,85.5,64.5,86.1,65.1z M64.8,24.1
			c0-0.8,0.7-1.5,1.5-1.5h5c0.8,0,1.5,0.7,1.5,1.5v2.4h-8V24.1z M16,35v1.8c-0.8-0.1-1.5-0.5-2.1-1.1c-0.7-0.7-1.1-1.7-1.1-2.8
			c0.1-2.1,1.8-3.7,3.9-3.7h1.6C16.9,30.7,16,32.7,16,35z M16.8,26.5c-3.5,0-6.5,2.8-6.6,6.3c0,0.5,0,0.9,0.1,1.3c0,0,0,0,0,0
			c-1.7-1.7-2.6-4-2.6-6.4c0.1-4.9,4.2-8.9,9.1-8.9h5.8h0.8H35c0.7,0,1.3-0.6,1.3-1.3v-4c0-0.2,0.2-0.4,0.3-0.4
			c0.1,0,0.3-0.1,0.5,0.1L48,22.3c0.1,0.1,0.2,0.3,0.2,0.3c0,0.1,0,0.2-0.2,0.3l-10.9,9.1c-0.2,0.2-0.4,0.1-0.5,0.1
			c-0.1,0-0.3-0.2-0.3-0.4v-4c0-0.7-0.6-1.3-1.3-1.3H16.8z M24.4,71.6c-3.2,0-5.8-2.6-5.8-5.8V35c0-3.2,2.6-5.8,5.8-5.8h9.2v2.6
			c0,1.2,0.7,2.3,1.8,2.8c1.1,0.5,2.4,0.4,3.3-0.4l6-5h30.8c3.2,0,5.8,2.6,5.8,5.8V38v0.8v27c0,3.2-2.6,5.8-5.8,5.8h-9.2V69
			c0-1.2-0.7-2.3-1.8-2.8c-1.1-0.5-2.4-0.4-3.3,0.4l-6,5H24.4z M83.2,82h-3h-0.8H65c-0.7,0-1.3,0.6-1.3,1.3v4c0,0.2-0.2,0.4-0.3,0.4
			c-0.1,0-0.3,0.1-0.5-0.1L52,78.5c-0.1-0.1-0.2-0.3-0.2-0.3s0-0.2,0.2-0.3l10.9-9.1c0.2-0.2,0.4-0.1,0.5-0.1c0.1,0,0.3,0.2,0.3,0.4
			v4c0,0.7,0.6,1.3,1.3,1.3h18.2c3.5,0,6.5-2.8,6.6-6.3c0-0.5,0-0.9-0.1-1.3c0,0,0,0,0,0c1.7,1.7,2.6,4,2.6,6.4
			C92.3,78,88.2,82,83.2,82z"/>
		<path class="st0" d="M50,38.4c-6.6,0-12,5.4-12,12c0,6.6,5.4,12,12,12s12-5.4,12-12C62,43.8,56.6,38.4,50,38.4z M50,59.7
			c-5.1,0-9.3-4.2-9.3-9.3s4.2-9.3,9.3-9.3s9.3,4.2,9.3,9.3S55.1,59.7,50,59.7z"/>
		<path class="st0" d="M67.5,50.4c0-9.6-7.8-17.5-17.5-17.5s-17.5,7.8-17.5,17.5c0,9.6,7.8,17.5,17.5,17.5S67.5,60,67.5,50.4z
			 M50,65.2c-8.2,0-14.8-6.6-14.8-14.8S41.8,35.6,50,35.6s14.8,6.6,14.8,14.8S58.2,65.2,50,65.2z"/>
	</g>
	<path class="st0" d="M22.2,38.7c0,2.7,2.2,4.9,4.9,4.9s4.9-2.2,4.9-4.9s-2.2-4.9-4.9-4.9S22.2,36,22.2,38.7z M29.3,38.7
		c0,1.2-1,2.2-2.2,2.2s-2.2-1-2.2-2.2s1-2.2,2.2-2.2C28.3,36.5,29.3,37.5,29.3,38.7z"/>
</g>
</svg>
