<?xml version="1.0" encoding="utf-8"?>
<!-- Generator: Adobe Illustrator 23.0.3, SVG Export Plug-In . SVG Version: 6.00 Build 0)  -->
<svg version="1.1" id="Capa_1" xmlns="http://www.w3.org/2000/svg" xmlns:xlink="http://www.w3.org/1999/xlink" x="0px" y="0px"
	 viewBox="0 0 100 100" style="enable-background:new 0 0 100 100;" xml:space="preserve">
<style type="text/css">
	.st0{fill:#FABF3C;}
</style>
<g>
	<g>
		<path class="st0" d="M81.8,63.2c-4.9-4.9-10.7-8.5-17.1-10.7C71.5,47.8,76,39.9,76,31C76,16.7,64.3,5,50,5S24,16.7,24,31
			c0,8.9,4.5,16.7,11.3,21.4c-6.4,2.2-12.2,5.8-17.1,10.7C9.7,71.7,5,83,5,95h7c0-20.9,17-38,38-38s38,17,38,38h7
			C95,83,90.3,71.7,81.8,63.2z M50,50c-10.5,0-19-8.5-19-19s8.5-19,19-19s19,8.5,19,19S60.5,50,50,50z"/>
	</g>
</g>
</svg>
